<svg height="512" viewBox="0 0 32 32" width="512" xmlns="http://www.w3.org/2000/svg" xmlns:xlink="http://www.w3.org/1999/xlink"><linearGradient id="SVGID_1_" gradientUnits="userSpaceOnUse" x1="1" x2="31" y1="10" y2="10"><stop offset="0" stop-color="#42a5f5"/><stop offset="1" stop-color="#1e88e5"/></linearGradient><linearGradient id="lg1"><stop offset="0" stop-color="#bbdefb"/><stop offset="1" stop-color="#64b5f6"/></linearGradient><linearGradient id="SVGID_2_" gradientUnits="userSpaceOnUse" x1="21.968" x2="27" xlink:href="#lg1" y1="11" y2="11"/><linearGradient id="SVGID_3_" gradientUnits="userSpaceOnUse" x1="11" x2="21" xlink:href="#lg1" y1="24" y2="24"/><g id="bolt"><g><path d="m24 5c-.8486328 0-1.6884766.15625-2.4794922.4580078-1.0283203-2.6445312-3.5976562-4.4580078-6.5205078-4.4580078-3.5532227 0-6.496582 2.6616211-6.9418945 6.0957031-.3486328-.0634765-.7016602-.0957031-1.0581055-.0957031-3.3085938 0-6 2.6914063-6 6s2.6914063 6 6 6h17c3.8598633 0 7-3.1401367 7-7s-3.1401367-7-7-7z" fill="url(#SVGID_1_)"/><g><path d="m26 13c-.5522461 0-1-.4477539-1-1 0-.7319336-.8427734-1.2578125-1.5136719-.8510742-.4711914.2871094-1.0874023.1357422-1.3735352-.3364258-.2866211-.472168-.1357422-1.0874023.3364258-1.3735352.4804688-.2915039 1.0019532-.4389648 1.5507813-.4389648 1.6542969 0 3 1.3457031 3 3 0 .5522461-.4477539 1-1 1z" fill="url(#SVGID_2_)"/></g><path d="m20.8818359 20.5283203c-.1743164-.3251953-.5131836-.5283203-.8818359-.5283203h-1.612793l.5615234-1.6835938c.1015625-.3051758.050293-.6401367-.1376953-.9008789-.1879882-.2612304-.489746-.4155273-.8110351-.4155273h-5c-.4887695 0-.90625.3535156-.9863281.8354492l-1 6c-.0483398.2900391.0332031.5864258.2231445.8110352.1899414.2241211.4692383.3535156.7631836.3535156h1.8193359l-.8056641 4.8354492c-.0776367.465332.1801758.9208984.6186523 1.0942383.119629.0478516.2441407.0703125.3671876.0703125.3266602 0 .6425781-.1601563.8325195-.4453125l6-9c.2045899-.3066406.2236329-.7011719.0498047-1.0263672z" fill="url(#SVGID_3_)"/></g></g></svg>