<svg height="512" viewBox="0 0 32 32" width="512" xmlns="http://www.w3.org/2000/svg" xmlns:xlink="http://www.w3.org/1999/xlink"><linearGradient id="SVGID_1_" gradientUnits="userSpaceOnUse" x1="1" x2="31" y1="16" y2="16"><stop offset="0" stop-color="#bbdefb"/><stop offset="1" stop-color="#64b5f6"/></linearGradient><linearGradient id="SVGID_2_" gradientUnits="userSpaceOnUse" x1="21.968" x2="27" y1="17" y2="17"><stop offset="0" stop-color="#42a5f5"/><stop offset="1" stop-color="#1e88e5"/></linearGradient><g id="cloud"><g><path d="m24 11c-.8486328 0-1.6884766.15625-2.4794922.4580078-1.0283203-2.6445312-3.5976562-4.4580078-6.5205078-4.4580078-3.5537109 0-6.4970703 2.6616211-6.9414063 6.0957031-.3486328-.0634765-.7021484-.0957031-1.0585937-.0957031-3.3085938 0-6 2.6914063-6 6s2.6914063 6 6 6h17c3.859375 0 7-3.1401367 7-7s-3.140625-7-7-7z" fill="url(#SVGID_1_)"/><g><path d="m26 19c-.5527344 0-1-.4477539-1-1 0-.7319336-.8447266-1.2568359-1.5136719-.8510742-.4707031.2871094-1.0869141.1367188-1.3740234-.3364258-.2861328-.472168-.1357422-1.0874023.3369141-1.3735352.4804687-.2915039 1.0019531-.4389648 1.5507812-.4389648 1.6542969 0 3 1.3457031 3 3 0 .5522461-.4472656 1-1 1z" fill="url(#SVGID_2_)"/></g></g></g></svg>