<svg height="512" viewBox="0 0 32 32" width="512" xmlns="http://www.w3.org/2000/svg" xmlns:xlink="http://www.w3.org/1999/xlink"><linearGradient id="SVGID_1_" gradientUnits="userSpaceOnUse" x1="1" x2="31" y1="11" y2="11"><stop offset="0" stop-color="#42a5f5"/><stop offset="1" stop-color="#1e88e5"/></linearGradient><linearGradient id="lg1"><stop offset="0" stop-color="#bbdefb"/><stop offset="1" stop-color="#64b5f6"/></linearGradient><linearGradient id="SVGID_2_" gradientUnits="userSpaceOnUse" x1="21.968" x2="27" xlink:href="#lg1" y1="12" y2="12"/><linearGradient id="SVGID_3_" gradientUnits="userSpaceOnUse" x1="4" x2="28" xlink:href="#lg1" y1="22" y2="22"/><g id="clouds"><g><path d="m24 20h-17c-3.3085938 0-6-2.6914063-6-6s2.6914063-6 6-6c.3549805 0 .7084961.0322266 1.0581055.0961914.4448242-3.4345703 3.3881836-6.0961914 6.9418945-6.0961914 2.918457 0 5.4863281 1.8139648 6.5180664 4.4589844.7880859-.3022461 1.6289063-.4589844 2.4819336-.4589844 3.8598633 0 7 3.1401367 7 7s-3.1401367 7-7 7z" fill="url(#SVGID_1_)"/><g><path d="m26 14c-.5522461 0-1-.4477539-1-1 0-.7319336-.8427734-1.2583008-1.5136719-.8510742-.4711914.2871094-1.0874023.1367188-1.3735352-.3364258-.2866211-.472168-.1357422-1.0874023.3364258-1.3735352.4804688-.2915039 1.0019532-.4389648 1.5507813-.4389648 1.6542969 0 3 1.3457031 3 3 0 .5522461-.4477539 1-1 1z" fill="url(#SVGID_2_)"/></g><path d="m22 18c-.4438477 0-.8833008.050293-1.315918.1499023-.7827148-2.4331054-3.0478515-4.1499023-5.684082-4.1499023-3.3085938 0-6 2.6914063-6 6-2.7568359 0-5 2.2431641-5 5s2.2431641 5 5 5h13c3.3085938 0 6-2.6914063 6-6s-2.6914062-6-6-6z" fill="url(#SVGID_3_)"/></g></g></svg>