<svg height="512" viewBox="0 0 32 32" width="512" xmlns="http://www.w3.org/2000/svg" xmlns:xlink="http://www.w3.org/1999/xlink"><linearGradient id="lg1"><stop offset="0" stop-color="#42a5f5"/><stop offset="1" stop-color="#1e88e5"/></linearGradient><linearGradient id="SVGID_1_" gradientUnits="userSpaceOnUse" x1="14" x2="26" xlink:href="#lg1" y1="12" y2="12"/><linearGradient id="lg2"><stop offset="0" stop-color="#bbdefb"/><stop offset="1" stop-color="#64b5f6"/></linearGradient><linearGradient id="SVGID_2_" gradientUnits="userSpaceOnUse" x1="19" x2="21" xlink:href="#lg2" y1="2.5" y2="2.5"/><linearGradient id="SVGID_3_" gradientUnits="userSpaceOnUse" x1="11.929" x2="14.636" xlink:href="#lg2" y1="5.282" y2="5.282"/><linearGradient id="SVGID_4_" gradientUnits="userSpaceOnUse" x1="9" x2="12" xlink:href="#lg2" y1="12" y2="12"/><linearGradient id="SVGID_5_" gradientUnits="userSpaceOnUse" x1="28" x2="31" xlink:href="#lg2" y1="12" y2="12"/><linearGradient id="SVGID_6_" gradientUnits="userSpaceOnUse" x1="25.364" x2="28.071" xlink:href="#lg2" y1="5.282" y2="5.282"/><linearGradient id="SVGID_7_" gradientUnits="userSpaceOnUse" x1="1" x2="31" xlink:href="#lg2" y1="22" y2="22"/><linearGradient id="SVGID_8_" gradientUnits="userSpaceOnUse" x1="21.968" x2="27" xlink:href="#lg1" y1="23" y2="23"/><g id="cloudy"><g><g><circle cx="20" cy="12" fill="url(#SVGID_1_)" r="6"/></g><g><path d="m20 4c-.5522461 0-1-.4477539-1-1v-1c0-.5522461.4477539-1 1-1s1 .4477539 1 1v1c0 .5522461-.4477539 1-1 1z" fill="url(#SVGID_2_)"/></g><g><path d="m13.6362305 6.6357422c-.2558594 0-.5117188-.0976563-.7070313-.2924805l-.7075195-.7070313c-.390625-.390625-.390625-1.0239258-.0004883-1.4145508.390625-.390625 1.0239258-.3901367 1.4145508-.0004883l.7075195.7070313c.390625.390625.390625 1.0239258.0004883 1.4145508-.1953125.1953125-.4516602.2929688-.7075195.2929688z" fill="url(#SVGID_3_)"/></g><g><path d="m11.0004883 13h-1.0009766c-.5522461 0-1-.4477539-1-1s.4477539-1 1-1h1.0009766c.5522461 0 1 .4477539 1 1s-.4477539 1-1 1z" fill="url(#SVGID_4_)"/></g><g><path d="m30.0004883 13h-1.0009766c-.5522461 0-1-.4477539-1-1s.4477539-1 1-1h1.0009766c.5522461 0 1 .4477539 1 1s-.4477539 1-1 1z" fill="url(#SVGID_5_)"/></g><g><path d="m26.3637695 6.6357422c-.2558594 0-.512207-.0976563-.7075195-.2929688-.3901367-.390625-.3901367-1.0239258.0004883-1.4145508l.7075195-.7070313c.390625-.3896484 1.0239258-.3901367 1.4145508.0004883.3901367.390625.3901367 1.0239258-.0004883 1.4145508l-.7075195.7070313c-.1953125.1948242-.4511719.2924805-.7070313.2924805z" fill="url(#SVGID_6_)"/></g><path d="m24 17c-.8486328 0-1.6884766.15625-2.4794922.4580078-1.0283203-2.6445312-3.5976562-4.4580078-6.5205078-4.4580078-3.5532227 0-6.496582 2.6616211-6.9418945 6.0957031-.3486328-.0634765-.7016602-.0957031-1.0581055-.0957031-3.3085938 0-6 2.6914063-6 6s2.6914063 6 6 6h17c3.8598633 0 7-3.1401367 7-7s-3.1401367-7-7-7z" fill="url(#SVGID_7_)"/><g><path d="m26 25c-.5522461 0-1-.4477539-1-1-.0004883-.7314453-.8422852-1.2592773-1.5136719-.8510742-.4716797.2861328-1.0869141.1362305-1.3735352-.3364258-.2866211-.472168-.1357422-1.0874023.3364258-1.3735352.4804688-.2915039 1.0019532-.4389648 1.5507813-.4389648 1.6542969 0 3 1.3457031 3 3 0 .5522461-.4477539 1-1 1z" fill="url(#SVGID_8_)"/></g></g></g></svg>