<svg height="512" viewBox="0 0 32 32" width="512" xmlns="http://www.w3.org/2000/svg" xmlns:xlink="http://www.w3.org/1999/xlink"><linearGradient id="lg1"><stop offset="0" stop-color="#42a5f5"/><stop offset="1" stop-color="#1e88e5"/></linearGradient><linearGradient id="SVGID_1_" gradientUnits="userSpaceOnUse" x1="15" x2="30.837" xlink:href="#lg1" y1="11" y2="11"/><linearGradient id="SVGID_2_" gradientUnits="userSpaceOnUse" x1="1" x2="31" y1="20" y2="20"><stop offset="0" stop-color="#bbdefb"/><stop offset="1" stop-color="#64b5f6"/></linearGradient><linearGradient id="SVGID_3_" gradientUnits="userSpaceOnUse" x1="21.968" x2="27" xlink:href="#lg1" y1="21" y2="21"/><g id="cloudy_night"><g><path d="m27 14c-3.3134766 0-6-2.6865234-6-6 0-2.0664063 1.0454102-3.8886719 2.6357422-4.9677734-.2104492-.0166016-.4213867-.0322266-.6357422-.0322266-4.4111328 0-8 3.5888672-8 8s3.5888672 8 8 8c3.859375 0 7.0893555-2.7470703 7.8369141-6.3886719-1.0400391.866211-2.3774414 1.3886719-3.8369141 1.3886719z" fill="url(#SVGID_1_)"/><path d="m24 15c-.8486328 0-1.6884766.15625-2.4794922.4580078-1.0283203-2.6445312-3.5976562-4.4580078-6.5205078-4.4580078-3.5532227 0-6.496582 2.6616211-6.9418945 6.0957031-.3486328-.0634765-.7016602-.0957031-1.0581055-.0957031-3.3085938 0-6 2.6914063-6 6s2.6914063 6 6 6h17c3.8598633 0 7-3.1401367 7-7s-3.1401367-7-7-7z" fill="url(#SVGID_2_)"/><g><path d="m26 23c-.5522461 0-1-.4477539-1-1 0-.7314453-.8427734-1.2578125-1.5136719-.8510742-.4711914.2871094-1.0874023.1367188-1.3735352-.3364258-.2866211-.472168-.1357422-1.0874023.3364258-1.3735352.4804688-.2915039 1.0019532-.4389648 1.5507813-.4389648 1.6542969 0 3 1.3457031 3 3 0 .5522461-.4477539 1-1 1z" fill="url(#SVGID_3_)"/></g></g></g></svg>