<svg height="512" viewBox="0 0 32 32" width="512" xmlns="http://www.w3.org/2000/svg" xmlns:xlink="http://www.w3.org/1999/xlink"><linearGradient id="lg1"><stop offset="0" stop-color="#42a5f5"/><stop offset="1" stop-color="#1e88e5"/></linearGradient><linearGradient id="SVGID_1_" gradientUnits="userSpaceOnUse" x1="10.393" x2="16.393" xlink:href="#lg1" y1="8.5" y2="8.5"/><linearGradient id="SVGID_2_" gradientUnits="userSpaceOnUse" x1="1" x2="11.794" xlink:href="#lg1" y1="11.384" y2="11.384"/><linearGradient id="SVGID_3_" gradientUnits="userSpaceOnUse" x1="1" x2="11.795" xlink:href="#lg1" y1="20.617" y2="20.617"/><linearGradient id="SVGID_4_" gradientUnits="userSpaceOnUse" x1="10.393" x2="16.394" xlink:href="#lg1" y1="23.501" y2="23.501"/><linearGradient id="SVGID_5_" gradientUnits="userSpaceOnUse" x1="14.99" x2="20.82" xlink:href="#lg1" y1="18.605" y2="18.605"/><linearGradient id="SVGID_6_" gradientUnits="userSpaceOnUse" x1="14.99" x2="21" xlink:href="#lg1" y1="13.34" y2="13.34"/><linearGradient id="lg2"><stop offset="0" stop-color="#bbdefb"/><stop offset="1" stop-color="#64b5f6"/></linearGradient><linearGradient id="SVGID_7_" gradientUnits="userSpaceOnUse" x1="9.893" x2="16.893" xlink:href="#lg2" y1="16" y2="16"/><linearGradient id="SVGID_8_" gradientUnits="userSpaceOnUse" x1="11.393" x2="15.393" xlink:href="#lg2" y1="10" y2="10"/><linearGradient id="SVGID_9_" gradientUnits="userSpaceOnUse" x1="6.696" x2="9.696" xlink:href="#lg2" y1="13" y2="13"/><linearGradient id="SVGID_10_" gradientUnits="userSpaceOnUse" x1="6.696" x2="9.696" xlink:href="#lg2" y1="19" y2="19"/><linearGradient id="SVGID_11_" gradientUnits="userSpaceOnUse" x1="11.393" x2="15.393" xlink:href="#lg2" y1="22" y2="22"/><linearGradient id="SVGID_12_" gradientUnits="userSpaceOnUse" x1="17" x2="31" xlink:href="#lg2" y1="16" y2="16"/><linearGradient id="SVGID_13_" gradientUnits="userSpaceOnUse" x1="21" x2="27" xlink:href="#lg1" y1="22.5" y2="22.5"/><g id="cold_temperature"><g><g><path d="m12.3925781 6.4140625v6.5859375c0 .5522461.4472656 1 1 1s1-.4477539 1-1v-6.5859375l1.7070313-1.7070313c.390625-.390625.390625-1.0234375 0-1.4140625s-1.0234375-.390625-1.4140625 0l-1.2929688 1.2929688-1.2929688-1.2929688c-.390625-.390625-1.0234375-.390625-1.4140625 0s-.390625 1.0234375 0 1.4140625z" fill="url(#SVGID_1_)"/><path d="m1.9990234 12.7329102c.0859375 0 .1728516-.0112305.2597656-.034668l2.3320313-.6245117 5.703125 3.2929688c.1572266.0908203.3291016.1337891.4990234.1337891.3457031 0 .6816406-.1791992.8671875-.5.2763672-.4780273.1123047-1.0898438-.3662109-1.3662109l-5.703125-3.2929688-.625-2.3320313c-.1435547-.5336915-.6914062-.8510743-1.2246094-.7070313-.5332031.1430664-.8505859.6914062-.7070312 1.2246094l.4736328 1.7666016-1.7666016.4731445c-.5332031.1425781-.8496094.690918-.7070313 1.2246094.1191407.4467773.5234376.7416992.9648438.7416992z" fill="url(#SVGID_2_)"/><path d="m11.2949219 18.3671875c.4785156-.2763672.6425781-.8876953.3662109-1.3662109-.2763672-.4790039-.8896484-.6430664-1.3662109-.3662109l-5.7041016 3.2924805-2.3320313-.6245117c-.53125-.144043-1.0820313.1733398-1.2246094.7070313s.1738281 1.0820313.7070313 1.2246094l1.7666016.4731445-.4736328 1.7666016c-.1435547.5332031.1738281 1.081543.7070313 1.2246094.0869141.0234375.1738281.034668.2597656.034668.4414063 0 .8447266-.2949219.9648438-.7416992l.625-2.3320313z" fill="url(#SVGID_3_)"/><path d="m14.3925781 25.5864258.0009766-6.5859375c0-.5522461-.4472656-1-1-1-.5517578 0-1 .4477539-1 1l-.0009766 6.5859375-1.7070313 1.7075195c-.390625.390625-.390625 1.0239258 0 1.4140625.390625.390625 1.0234375.390625 1.4140625 0l1.2929688-1.293457 1.2939453 1.293457c.1953125.1953125.4511719.2929688.7070313.2929688s.5117188-.0976563.7070313-.2929688c.390625-.390625.390625-1.0239258 0-1.4140625z" fill="url(#SVGID_4_)"/><path d="m20.3203125 18.84375-3.8300781-2.2099609c-.4785156-.2758789-1.0898438-.1123047-1.366211.3662109s-.1123047 1.090332.3662109 1.3662109l3.8300781 2.2099609c.1572266.0908203.3291016.1337891.4990234.1337891.3457031 0 .6816406-.1791992.8671875-.5.2763673-.4785156.1123048-1.090332-.3662108-1.3662109z" fill="url(#SVGID_5_)"/><path d="m15.125 15.0009766c.1845703.3203125.5205078.4990234.8662109.4990234.1699219 0 .3417969-.0429688.5-.1342773l4.0097656-2.3198242c.4775391-.2768555.6416016-.8886719.3642578-1.3666992-.2753906-.4780273-.8867188-.6416016-1.3662109-.3647461l-4.0097656 2.3198242c-.477539.2768554-.6416015.8886718-.3642578 1.3666992z" fill="url(#SVGID_6_)"/></g><g><path d="m13.3925781 12.5c-1.9296875 0-3.5 1.5703125-3.5 3.5s1.5703125 3.5 3.5 3.5 3.5-1.5703125 3.5-3.5-1.5703125-3.5-3.5-3.5z" fill="url(#SVGID_7_)"/><g><path d="m14.3925781 11h-2c-.5527344 0-1-.4477539-1-1s.4472656-1 1-1h2c.5527344 0 1 .4477539 1 1s-.4472656 1-1 1z" fill="url(#SVGID_8_)"/></g><g><path d="m7.6953125 14.8662109c-.1699219 0-.3417969-.0429688-.4990234-.1337891-.4785156-.2763672-.6425781-.8881836-.3662109-1.3662109l1-1.7319336c.2763672-.4790039.8876953-.6430664 1.3662109-.3662109.4785156.2763672.6425781.8881836.3662109 1.3662109l-1 1.7319336c-.1855469.3208008-.5214844.5-.8671875.5z" fill="url(#SVGID_9_)"/></g><g><path d="m8.6972656 20.8666992c-.3457031 0-.6816406-.1791992-.8671875-.5l-1-1.7324219c-.2763672-.4785156-.1123047-1.0898438.3662109-1.3662109.4765625-.2758789 1.0888672-.1123047 1.3662109.3662109l1 1.7324219c.2763672.4785156.1123047 1.0898438-.3662109 1.3662109-.1572265.0908204-.3291015.1337891-.4990234.1337891z" fill="url(#SVGID_10_)"/></g><g><path d="m14.3925781 23.0004883h-2c-.5527344 0-1-.4477539-1-1s.4472656-1 1-1h2c.5527344 0 1 .4477539 1 1s-.4472656 1-1 1z" fill="url(#SVGID_11_)"/></g></g><path d="m29 19.1108398v-13.1108398c0-2.7568359-2.2431641-5-5-5s-5 2.2431641-5 5v13.1108398c-1.2763672 1.3056641-2 3.0625-2 4.8891602 0 3.8598633 3.140625 7 7 7s7-3.1401367 7-7c0-1.8266602-.7236328-3.5834961-2-4.8891602z" fill="url(#SVGID_12_)"/><path d="m25 21.184082v-2.184082c0-.5522461-.4472656-1-1-1s-1 .4477539-1 1v2.184082c-1.1611328.4145508-2 1.5141602-2 2.815918 0 1.6542969 1.3457031 3 3 3s3-1.3457031 3-3c0-1.3017578-.8388672-2.4013672-2-2.815918z" fill="url(#SVGID_13_)"/></g></g></svg>