<svg height="512" viewBox="0 0 32 32" width="512" xmlns="http://www.w3.org/2000/svg" xmlns:xlink="http://www.w3.org/1999/xlink"><linearGradient id="lg1"><stop offset="0" stop-color="#bbdefb"/><stop offset="1" stop-color="#64b5f6"/></linearGradient><linearGradient id="SVGID_1_" gradientUnits="userSpaceOnUse" x1="1" x2="31" xlink:href="#lg1" y1="10" y2="10"/><linearGradient id="SVGID_2_" gradientUnits="userSpaceOnUse" x1="21.968" x2="27" y1="11" y2="11"><stop offset="0" stop-color="#42a5f5"/><stop offset="1" stop-color="#1e88e5"/></linearGradient><linearGradient id="SVGID_3_" gradientUnits="userSpaceOnUse" x1="24.34" x2="27" xlink:href="#lg1" y1="22.775" y2="22.775"/><linearGradient id="SVGID_4_" gradientUnits="userSpaceOnUse" x1="9.66" x2="22.34" xlink:href="#lg1" y1="22.606" y2="22.606"/><linearGradient id="SVGID_5_" gradientUnits="userSpaceOnUse" x1="5" x2="7.66" xlink:href="#lg1" y1="22.775" y2="22.775"/><linearGradient id="SVGID_6_" gradientUnits="userSpaceOnUse" x1="20.34" x2="27" xlink:href="#lg1" y1="26.744" y2="26.744"/><linearGradient id="SVGID_7_" gradientUnits="userSpaceOnUse" x1="13.66" x2="18.34" xlink:href="#lg1" y1="27.074" y2="27.074"/><linearGradient id="SVGID_8_" gradientUnits="userSpaceOnUse" x1="5" x2="11.66" xlink:href="#lg1" y1="26.744" y2="26.744"/><g id="fog"><g><g><path d="m24 5c-.8486328 0-1.6884766.15625-2.4794922.4580078-1.0283203-2.6445312-3.5976562-4.4580078-6.5205078-4.4580078-3.5537109 0-6.4970703 2.6616211-6.9414063 6.0957031-.3486328-.0634765-.7021484-.0957031-1.0585937-.0957031-3.3085938 0-6 2.6914063-6 6s2.6914063 6 6 6h17c3.859375 0 7-3.1401367 7-7s-3.140625-7-7-7z" fill="url(#SVGID_1_)"/><g><path d="m26 13c-.5527344 0-1-.4477539-1-1 0-.7319336-.8447266-1.2568359-1.5136719-.8510742-.4716797.2861328-1.0859375.1362305-1.3740234-.3364258-.2861328-.472168-.1357422-1.0874023.3369141-1.3735352.4804687-.2915039 1.0019531-.4389648 1.5507812-.4389648 1.6542969 0 3 1.3457031 3 3 0 .5522461-.4472656 1-1 1z" fill="url(#SVGID_2_)"/></g><g><path d="m25.3408203 23.9399414c-.3671875 0-.7197266-.2021484-.8955078-.5527344-.2470703-.4941406-.046875-1.0947266.4472656-1.3417969l.6601563-.3300781c.4941406-.246582 1.09375-.046875 1.3417969.4472656.2470703.4941406.046875 1.0947266-.4472656 1.3417969l-.6601563.3300781c-.1435547.0717774-.2958985.1054688-.4462891.1054688z" fill="url(#SVGID_3_)"/></g><g><path d="m15.9960938 24.2080078c-.6347656 0-1.2675781-.1230469-1.7734375-.3686523l-1.3300781-.6650391c-.4589844-.2294922-1.3251953-.2294922-1.7861328 0-.4902344.2470703-1.09375.0458984-1.3408203-.4477539-.2470703-.4941406-.0458984-1.0947266.4482422-1.3413086 1.0175781-.5087891 2.5546875-.5087891 3.5722656 0l1.3212891.6601563c.4541016.2211914 1.3310547.2211914 1.7949219-.0048828l1.3105469-.6552734c1.0195313-.5087891 2.5556641-.5087891 3.5732422 0 .4941406.246582.6953125.847168.4482422 1.3413086-.2460938.4936523-.8496094.6948242-1.3408203.4477539-.4609375-.2285156-1.3261719-.2285156-1.7871094 0l-1.3193359.6601563c-.5126955.2490233-1.152344.373535-1.7910158.373535z" fill="url(#SVGID_4_)"/></g><g><path d="m6.6591797 23.9399414c-.1503906 0-.3027344-.0336914-.4462891-.1054688l-.6601563-.3300781c-.4941406-.2470703-.6943359-.8476563-.4472656-1.3417969s.8476563-.6938476 1.3417969-.4472656l.6601563.3300781c.4941406.2470703.6943359.8476563.4472656 1.3417969-.1757812.350586-.5283203.5527344-.8955078.5527344z" fill="url(#SVGID_5_)"/></g><g><path d="m23.9960938 28.2080078c-.6347656 0-1.2675781-.1230469-1.7734375-.3686523l-1.3300781-.6650391c-.4941406-.2470703-.6943359-.8476563-.4472656-1.3417969.2480469-.4936523.8466797-.6933594 1.3417969-.4472656l1.3203125.6601563c.4541016.2211914 1.3310547.2211914 1.7949219-.0048828l.6503906-.3251953c.4941406-.2470703 1.09375-.046875 1.3417969.4472656.2470703.4941406.046875 1.0947266-.4472656 1.3417969l-.6601563.3300781c-.5126954.2490234-1.1523439.3735351-1.7910157.3735351z" fill="url(#SVGID_6_)"/></g><g><path d="m16 28.2084961c-.6357422 0-1.2705078-.1230469-1.7773438-.3691406-.4960938-.2416992-.703125-.8398438-.4619141-1.3364258.2412109-.4960938.8417969-.7026367 1.3369141-.4624023.4628906.2255859 1.3417969.2255859 1.8046875 0 .4980469-.2402344 1.0966797-.0336914 1.3369141.4624023.2412109.496582.0341797 1.0947266-.4619141 1.3364258-.5068359.2460937-1.1416015.3691406-1.7773437.3691406z" fill="url(#SVGID_7_)"/></g><g><path d="m7.9960938 28.2080078c-.6347656 0-1.2675781-.1230469-1.7734375-.3686523l-.6699219-.3349609c-.4941406-.2470703-.6943359-.8476563-.4472656-1.3417969s.8476563-.6943359 1.3417969-.4472656l.6601563.3300781c.4541016.2211914 1.3310547.2211914 1.7949219-.0048828l1.3105469-.6552734c.4941406-.2460938 1.09375-.0463867 1.3417969.4472656.2470703.4941406.046875 1.0947266-.4472656 1.3417969l-1.3203125.6601563c-.5126955.2490233-1.152344.373535-1.7910158.373535z" fill="url(#SVGID_8_)"/></g></g></g></g></svg>