<svg height="512" viewBox="0 0 32 32" width="512" xmlns="http://www.w3.org/2000/svg" xmlns:xlink="http://www.w3.org/1999/xlink"><linearGradient id="lg1"><stop offset="0" stop-color="#bbdefb"/><stop offset="1" stop-color="#64b5f6"/></linearGradient><linearGradient id="SVGID_1_" gradientUnits="userSpaceOnUse" x1="1" x2="27" xlink:href="#lg1" y1="16" y2="16"/><linearGradient id="lg2"><stop offset="0" stop-color="#42a5f5"/><stop offset="1" stop-color="#1e88e5"/></linearGradient><linearGradient id="SVGID_2_" gradientUnits="userSpaceOnUse" x1="1" x2="14" xlink:href="#lg2" y1="20" y2="20"/><linearGradient id="SVGID_3_" gradientUnits="userSpaceOnUse" x1="11" x2="27" xlink:href="#lg2" y1="12.825" y2="12.825"/><linearGradient id="SVGID_4_" gradientUnits="userSpaceOnUse" x1="17" x2="31" xlink:href="#lg1" y1="16" y2="16"/><linearGradient id="SVGID_5_" gradientUnits="userSpaceOnUse" x1="21" x2="27" xlink:href="#lg2" y1="16" y2="16"/><g id="global_warming"><g><path d="m14 3c-7.168457 0-13 5.831543-13 13s5.831543 13 13 13 13-5.831543 13-13-5.831543-13-13-13z" fill="url(#SVGID_1_)"/><path d="m14 22c0 2.2099609-1.7900391 4-4 4h-4.2998047c-2.8701172-2.3798828-4.7001953-5.9799805-4.7001953-10 0-.6801758.0498047-1.3398438.1499023-2h4.8500977c1.6499023 0 3 1.3500977 3 3v1h1c1.0498047 0 2.0800781.4301758 2.8300781 1.1699219.7397461.75 1.1699219 1.7802734 1.1699219 2.8300781z" fill="url(#SVGID_2_)"/><path d="m27 16c0 .9101563-.0898438 1.7900391-.2700195 2.6499023h-6.7299805c-.1098633 0-.2202148-.0200195-.3300781-.0600586-2.4697266-.8598632-4.2299805-3.040039-4.6000977-5.5898437h-1.0698242c-1.6499023 0-3-1.3500977-3-3s1.3500977-3 3-3h9.3701172c2.25 2.3300781 3.6298828 5.5097656 3.6298828 9z" fill="url(#SVGID_3_)"/><path d="m29 19.1108398v-13.1108398c0-2.7568359-2.2431641-5-5-5s-5 2.2431641-5 5v13.1108398c-1.2763672 1.3056641-2 3.0625-2 4.8891602 0 3.8598633 3.1401367 7 7 7s7-3.1401367 7-7c0-1.8266602-.7236328-3.5834961-2-4.8891602z" fill="url(#SVGID_4_)"/><path d="m25 21.184082v-15.184082c0-.5522461-.4477539-1-1-1s-1 .4477539-1 1v15.184082c-1.1616211.4145508-2 1.5141602-2 2.815918 0 1.6542969 1.3457031 3 3 3s3-1.3457031 3-3c0-1.3017578-.8383789-2.4013672-2-2.815918z" fill="url(#SVGID_5_)"/></g></g></svg>