<svg height="512" viewBox="0 0 32 32" width="512" xmlns="http://www.w3.org/2000/svg" xmlns:xlink="http://www.w3.org/1999/xlink"><linearGradient id="SVGID_1_" gradientUnits="userSpaceOnUse" x1="4" x2="28" y1="16" y2="16"><stop offset="0" stop-color="#bbdefb"/><stop offset="1" stop-color="#64b5f6"/></linearGradient><linearGradient id="lg1"><stop offset="0" stop-color="#42a5f5"/><stop offset="1" stop-color="#1e88e5"/></linearGradient><linearGradient id="SVGID_2_" gradientUnits="userSpaceOnUse" x1="11" x2="21" xlink:href="#lg1" y1="19" y2="19"/><linearGradient id="SVGID_3_" gradientUnits="userSpaceOnUse" x1="11" x2="15" xlink:href="#lg1" y1="16" y2="16"/><linearGradient id="SVGID_4_" gradientUnits="userSpaceOnUse" x1="17" x2="21" xlink:href="#lg1" y1="22" y2="22"/><g id="humidity"><g><path d="m16.7045898 1.2900391c-.3896484-.3867188-1.0195313-.3867188-1.4091797 0-.4614257.4580078-11.2954101 11.2919922-11.2954101 17.7099609 0 6.6171875 5.3833008 12 12 12s12-5.3828125 12-12c0-6.4179687-10.8339844-17.2519531-11.2954102-17.7099609z" fill="url(#SVGID_1_)"/><g><path d="m12 24c-.2558594 0-.5117188-.0976563-.7070313-.2929688-.390625-.390625-.390625-1.0234375 0-1.4140625l8-8c.390625-.390625 1.0234375-.390625 1.4140625 0s.390625 1.0234375 0 1.4140625l-8 8c-.1953124.1953126-.4511718.2929688-.7070312.2929688z" fill="url(#SVGID_2_)"/></g><g><circle cx="13" cy="16" fill="url(#SVGID_3_)" r="2"/></g><g><circle cx="19" cy="22" fill="url(#SVGID_4_)" r="2"/></g></g></g></svg>