<svg height="512" viewBox="0 0 32 32" width="512" xmlns="http://www.w3.org/2000/svg" xmlns:xlink="http://www.w3.org/1999/xlink"><linearGradient id="SVGID_1_" gradientUnits="userSpaceOnUse" x1="1" x2="31" y1="16" y2="16"><stop offset="0" stop-color="#bbdefb"/><stop offset="1" stop-color="#64b5f6"/></linearGradient><linearGradient id="lg1"><stop offset="0" stop-color="#42a5f5"/><stop offset="1" stop-color="#1e88e5"/></linearGradient><linearGradient id="SVGID_2_" gradientUnits="userSpaceOnUse" x1="11" x2="13" xlink:href="#lg1" y1="24" y2="24"/><linearGradient id="SVGID_3_" gradientUnits="userSpaceOnUse" x1="7" x2="9" xlink:href="#lg1" y1="20" y2="20"/><linearGradient id="SVGID_4_" gradientUnits="userSpaceOnUse" x1="9" x2="11" xlink:href="#lg1" y1="13" y2="13"/><linearGradient id="SVGID_5_" gradientUnits="userSpaceOnUse" x1="15" x2="19" xlink:href="#lg1" y1="10" y2="10"/><linearGradient id="SVGID_6_" gradientUnits="userSpaceOnUse" x1="21.5" x2="24.5" xlink:href="#lg1" y1="18" y2="18"/><g id="moon"><g><path d="m16 1c-8.2714844 0-15 6.7290039-15 15s6.7285156 15 15 15 15-6.7290039 15-15-6.7285156-15-15-15z" fill="url(#SVGID_1_)"/><circle cx="12" cy="24" fill="url(#SVGID_2_)" r="1"/><circle cx="8" cy="20" fill="url(#SVGID_3_)" r="1"/><circle cx="10" cy="13" fill="url(#SVGID_4_)" r="1"/><circle cx="17" cy="10" fill="url(#SVGID_5_)" r="2"/><circle cx="23" cy="18" fill="url(#SVGID_6_)" r="1.5"/></g></g></svg>