<svg height="512" viewBox="0 0 32 32" width="512" xmlns="http://www.w3.org/2000/svg" xmlns:xlink="http://www.w3.org/1999/xlink"><linearGradient id="lg1"><stop offset="0" stop-color="#42a5f5"/><stop offset="1" stop-color="#1e88e5"/></linearGradient><linearGradient id="SVGID_1_" gradientUnits="userSpaceOnUse" x1="1" x2="22.625" xlink:href="#lg1" y1="16" y2="16"/><linearGradient id="SVGID_2_" gradientUnits="userSpaceOnUse" x1="17" x2="31" y1="16" y2="16"><stop offset="0" stop-color="#bbdefb"/><stop offset="1" stop-color="#64b5f6"/></linearGradient><linearGradient id="SVGID_3_" gradientUnits="userSpaceOnUse" x1="21" x2="27" xlink:href="#lg1" y1="19" y2="19"/><g id="night_temperature"><g><path d="m22.1318359 17.8232422c-.3925781-.2294922-.8876953-.1679688-1.2099609.1513672-1.3203125 1.305664-3.0683594 2.0253906-4.921875 2.0253906-3.8598633 0-7-3.140625-7-7 0-2.5380859 1.3818359-4.8828125 3.6064453-6.1201172.3862305-.2148438.5551758-.6591797.4599609-1.0908203-.0947266-.4316406-.4921875-.7509766-.9331055-.7832031-.024414-.0019531-.1088866-.0058594-.1333007-.0058594-6.0654297 0-11 4.9345703-11 11s4.9345703 11 11 11c4.9145508 0 9.2685547-3.3085938 10.5878906-8.0458984.1220703-.4365235-.0654297-.9013672-.4560547-1.1308594z" fill="url(#SVGID_1_)"/><path d="m29 19.1113281v-13.1113281c0-2.7568359-2.2431641-5-5-5s-5 2.2431641-5 5v13.1113281c-1.2763672 1.3046875-2 3.0625-2 4.8886719 0 3.859375 3.140625 7 7 7s7-3.140625 7-7c0-1.8261719-.7236328-3.5839844-2-4.8886719z" fill="url(#SVGID_2_)"/><path d="m25 21.1845703v-9.1845703c0-.5527344-.4472656-1-1-1s-1 .4472656-1 1v9.1845703c-1.1611328.4140625-2 1.5136719-2 2.8154297 0 1.6542969 1.3457031 3 3 3s3-1.3457031 3-3c0-1.3017578-.8388672-2.4013672-2-2.8154297z" fill="url(#SVGID_3_)"/></g></g></svg>