<svg height="512" viewBox="0 0 32 32" width="512" xmlns="http://www.w3.org/2000/svg" xmlns:xlink="http://www.w3.org/1999/xlink"><linearGradient id="lg1"><stop offset="0" stop-color="#bbdefb"/><stop offset="1" stop-color="#64b5f6"/></linearGradient><linearGradient id="SVGID_1_" gradientUnits="userSpaceOnUse" x1="6" x2="8" xlink:href="#lg1" y1="29" y2="29"/><linearGradient id="SVGID_2_" gradientUnits="userSpaceOnUse" x1="13" x2="15" xlink:href="#lg1" y1="29" y2="29"/><linearGradient id="SVGID_3_" gradientUnits="userSpaceOnUse" x1="20" x2="22" xlink:href="#lg1" y1="29" y2="29"/><linearGradient id="SVGID_4_" gradientUnits="userSpaceOnUse" x1="14" x2="15" xlink:href="#lg1" y1="29" y2="29"/><linearGradient id="SVGID_6_" gradientUnits="userSpaceOnUse" x1="15" x2="25" xlink:href="#lg1" y1="11" y2="11"/><linearGradient id="lg2"><stop offset="0" stop-color="#42a5f5"/><stop offset="1" stop-color="#1e88e5"/></linearGradient><linearGradient id="SVGID_7_" gradientUnits="userSpaceOnUse" x1="19" x2="21" xlink:href="#lg2" y1="2.5" y2="2.5"/><linearGradient id="SVGID_8_" gradientUnits="userSpaceOnUse" x1="12.636" x2="15.344" xlink:href="#lg2" y1="4.99" y2="4.99"/><linearGradient id="SVGID_9_" gradientUnits="userSpaceOnUse" x1="27" x2="30" xlink:href="#lg2" y1="11" y2="11"/><linearGradient id="SVGID_10_" gradientUnits="userSpaceOnUse" x1="24.657" x2="27.364" xlink:href="#lg2" y1="4.99" y2="4.99"/><linearGradient id="SVGID_11_" gradientUnits="userSpaceOnUse" x1="2" x2="26" xlink:href="#lg2" y1="17" y2="17"/><g id="rain_day"><g><g><path d="m7 31c-.5527344 0-1-.4477539-1-1v-2c0-.5522461.4472656-1 1-1s1 .4477539 1 1v2c0 .5522461-.4472656 1-1 1z" fill="url(#SVGID_1_)"/></g><g><path d="m14 31c-.5527344 0-1-.4477539-1-1v-2c0-.5522461.4472656-1 1-1s1 .4477539 1 1v2c0 .5522461-.4472656 1-1 1z" fill="url(#SVGID_2_)"/></g><g><path d="m21 31c-.5527344 0-1-.4477539-1-1v-2c0-.5522461.4472656-1 1-1s1 .4477539 1 1v2c0 .5522461-.4472656 1-1 1z" fill="url(#SVGID_3_)"/></g><g><path d="m14 27c.5527344 0 1 .4477539 1 1v2c0 .5522461-.4472656 1-1 1z" fill="url(#SVGID_4_)"/></g><g><path d="m21 31c-.5527344 0-1-.4477539-1-1v-2c0-.5522461.4472656-1 1-1s1 .4477539 1 1v2c0 .5522461-.4472656 1-1 1z" fill="url(#SVGID_3_)"/></g><g><circle cx="20" cy="11" fill="url(#SVGID_6_)" r="5"/></g><g><path d="m20 4c-.5527344 0-1-.4477539-1-1v-1c0-.5522461.4472656-1 1-1s1 .4477539 1 1v1c0 .5522461-.4472656 1-1 1z" fill="url(#SVGID_7_)"/></g><g><path d="m14.34375 6.3432617c-.2558594 0-.5117188-.0976563-.7070313-.2924805l-.7080078-.7070312c-.390625-.390625-.390625-1.0239258-.0009766-1.4145508.390625-.390625 1.0244141-.3901367 1.4150391-.0004883l.7080078.7070313c.390625.390625.390625 1.0239258 0 1.4145508-.1953124.1953125-.4511718.2929687-.7070312.2929687z" fill="url(#SVGID_8_)"/></g><g><path d="m29 12h-1c-.5527344 0-1-.4477539-1-1s.4472656-1 1-1h1c.5527344 0 1 .4477539 1 1s-.4472656 1-1 1z" fill="url(#SVGID_9_)"/></g><g><path d="m25.6572266 6.3432617c-.2558594 0-.5117188-.0976563-.7070313-.2929688-.390625-.390625-.390625-1.0234375 0-1.4140625l.7070313-.7070313c.390625-.390625 1.0234375-.390625 1.4140625 0s.390625 1.0234375 0 1.4140625l-.7070313.7070314c-.1953125.1953125-.4511719.2929687-.7070312.2929687z" fill="url(#SVGID_10_)"/></g><path d="m20 13c-.4433594 0-.8828125.050293-1.3154297.1499023-.7832031-2.4331054-3.0498047-4.1499023-5.6845703-4.1499023-3.3085938 0-6 2.6914063-6 6-2.7568359 0-5 2.2431641-5 5s2.2431641 5 5 5h13c3.3085938 0 6-2.6914063 6-6s-2.6914062-6-6-6z" fill="url(#SVGID_11_)"/></g></g></svg>