<svg height="512" viewBox="0 0 32 32" width="512" xmlns="http://www.w3.org/2000/svg" xmlns:xlink="http://www.w3.org/1999/xlink"><linearGradient id="SVGID_1_" gradientUnits="userSpaceOnUse" x1="1" x2="31" y1="10" y2="10"><stop offset="0" stop-color="#42a5f5"/><stop offset="1" stop-color="#1e88e5"/></linearGradient><linearGradient id="lg1"><stop offset="0" stop-color="#bbdefb"/><stop offset="1" stop-color="#64b5f6"/></linearGradient><linearGradient id="SVGID_2_" gradientUnits="userSpaceOnUse" x1="21.968" x2="27" xlink:href="#lg1" y1="11" y2="11"/><linearGradient id="SVGID_3_" gradientUnits="userSpaceOnUse" x1="7" x2="10" xlink:href="#lg1" y1="29" y2="29"/><linearGradient id="SVGID_4_" gradientUnits="userSpaceOnUse" x1="12" x2="15" xlink:href="#lg1" y1="29" y2="29"/><linearGradient id="SVGID_5_" gradientUnits="userSpaceOnUse" x1="17" x2="20" xlink:href="#lg1" y1="29" y2="29"/><linearGradient id="SVGID_6_" gradientUnits="userSpaceOnUse" x1="22" x2="25" xlink:href="#lg1" y1="29" y2="29"/><linearGradient id="SVGID_7_" gradientUnits="userSpaceOnUse" x1="7" x2="10" xlink:href="#lg1" y1="23" y2="23"/><linearGradient id="SVGID_8_" gradientUnits="userSpaceOnUse" x1="12" x2="15" xlink:href="#lg1" y1="23" y2="23"/><linearGradient id="SVGID_9_" gradientUnits="userSpaceOnUse" x1="17" x2="20" xlink:href="#lg1" y1="23" y2="23"/><linearGradient id="SVGID_10_" gradientUnits="userSpaceOnUse" x1="22" x2="25" xlink:href="#lg1" y1="23" y2="23"/><g id="rainy"><g><path d="m24 5c-.8486328 0-1.6884766.15625-2.4794922.4580078-1.0283203-2.6445312-3.5976562-4.4580078-6.5205078-4.4580078-3.5537109 0-6.4970703 2.6616211-6.9414063 6.0957031-.3486328-.0634765-.7021484-.0957031-1.0585937-.0957031-3.3085938 0-6 2.6914063-6 6s2.6914063 6 6 6h17c3.859375 0 7-3.1401367 7-7s-3.140625-7-7-7z" fill="url(#SVGID_1_)"/><g><path d="m26 13c-.5527344 0-1-.4477539-1-1 0-.7314453-.8447266-1.2578125-1.5136719-.8510742-.4707031.2861328-1.0869141.1362305-1.3740234-.3364258-.2861328-.472168-.1357422-1.0874023.3369141-1.3735352.4804687-.2915039 1.0019531-.4389648 1.5507812-.4389648 1.6542969 0 3 1.3457031 3 3 0 .5522461-.4472656 1-1 1z" fill="url(#SVGID_2_)"/></g><g><path d="m7.9990234 31c-.1503906 0-.3027344-.0336914-.4462891-.1054688-.4941406-.2470703-.6943359-.8476563-.4472656-1.3417969l1-2c.2470703-.4936523.8476563-.6933594 1.3417969-.4472656.4941406.2470703.6943359.8476563.4472656 1.3417969l-1 2c-.1757812.350586-.5283203.5527344-.8955078.5527344z" fill="url(#SVGID_3_)"/></g><g><path d="m12.9990234 31c-.1503906 0-.3027344-.0336914-.4462891-.1054688-.4941406-.2470703-.6943359-.8476563-.4472656-1.3417969l1-2c.2480469-.4936523.8476563-.6933594 1.3417969-.4472656.4941406.2470703.6943359.8476563.4472656 1.3417969l-1 2c-.1757812.350586-.5283203.5527344-.8955078.5527344z" fill="url(#SVGID_4_)"/></g><g><path d="m17.9990234 31c-.1503906 0-.3027344-.0336914-.4462891-.1054688-.4941406-.2470703-.6943359-.8476563-.4472656-1.3417969l1-2c.2480469-.4936523.8486328-.6933594 1.3417969-.4472656.4941406.2470703.6943359.8476563.4472656 1.3417969l-1 2c-.1757812.350586-.5283203.5527344-.8955078.5527344z" fill="url(#SVGID_5_)"/></g><g><path d="m22.9990234 31c-.1503906 0-.3027344-.0336914-.4462891-.1054688-.4941406-.2470703-.6943359-.8476563-.4472656-1.3417969l1-2c.2470703-.4936523.8476563-.6933594 1.3417969-.4472656.4941406.2470703.6943359.8476563.4472656 1.3417969l-1 2c-.1757812.350586-.5283203.5527344-.8955078.5527344z" fill="url(#SVGID_6_)"/></g><g><path d="m7.9990234 25c-.1503906 0-.3027344-.0336914-.4462891-.1054688-.4941406-.2470703-.6943359-.8476563-.4472656-1.3417969l1-2c.2470703-.4941406.8476563-.6943359 1.3417969-.4472656s.6943359.8476563.4472656 1.3417969l-1 2c-.1757812.350586-.5283203.5527344-.8955078.5527344z" fill="url(#SVGID_7_)"/></g><g><path d="m12.9990234 25c-.1503906 0-.3027344-.0336914-.4462891-.1054688-.4941406-.2470703-.6943359-.8476563-.4472656-1.3417969l1-2c.2480469-.4941406.8476563-.6943359 1.3417969-.4472656s.6943359.8476563.4472656 1.3417969l-1 2c-.1757812.350586-.5283203.5527344-.8955078.5527344z" fill="url(#SVGID_8_)"/></g><g><path d="m17.9990234 25c-.1503906 0-.3027344-.0336914-.4462891-.1054688-.4941406-.2470703-.6943359-.8476563-.4472656-1.3417969l1-2c.2480469-.4941406.8486328-.6943359 1.3417969-.4472656.4941406.2470703.6943359.8476563.4472656 1.3417969l-1 2c-.1757812.350586-.5283203.5527344-.8955078.5527344z" fill="url(#SVGID_9_)"/></g><g><path d="m22.9990234 25c-.1503906 0-.3027344-.0336914-.4462891-.1054688-.4941406-.2470703-.6943359-.8476563-.4472656-1.3417969l1-2c.2470703-.4941406.8476563-.6943359 1.3417969-.4472656s.6943359.8476563.4472656 1.3417969l-1 2c-.1757812.350586-.5283203.5527344-.8955078.5527344z" fill="url(#SVGID_10_)"/></g></g></g></svg>