<svg height="512" viewBox="0 0 32 32" width="512" xmlns="http://www.w3.org/2000/svg" xmlns:xlink="http://www.w3.org/1999/xlink"><linearGradient id="lg1"><stop offset="0" stop-color="#42a5f5"/><stop offset="1" stop-color="#1e88e5"/></linearGradient><linearGradient id="SVGID_1_" gradientUnits="userSpaceOnUse" x1="27" x2="30" xlink:href="#lg1" y1="11" y2="11"/><linearGradient id="SVGID_2_" gradientUnits="userSpaceOnUse" x1="24.657" x2="27.364" xlink:href="#lg1" y1="4.99" y2="4.99"/><linearGradient id="lg2"><stop offset="0" stop-color="#bbdefb"/><stop offset="1" stop-color="#64b5f6"/></linearGradient><linearGradient id="SVGID_3_" gradientUnits="userSpaceOnUse" x1="15" x2="25" xlink:href="#lg2" y1="11" y2="11"/><linearGradient id="SVGID_4_" gradientUnits="userSpaceOnUse" x1="19" x2="21" xlink:href="#lg1" y1="2.5" y2="2.5"/><linearGradient id="SVGID_5_" gradientUnits="userSpaceOnUse" x1="12.636" x2="15.343" xlink:href="#lg1" y1="4.99" y2="4.99"/><linearGradient id="SVGID_6_" gradientUnits="userSpaceOnUse" x1="2" x2="26" xlink:href="#lg1" y1="17" y2="17"/><linearGradient id="SVGID_7_" gradientUnits="userSpaceOnUse" x1="5" x2="8" xlink:href="#lg2" y1="29" y2="29"/><linearGradient id="SVGID_8_" gradientUnits="userSpaceOnUse" x1="12" x2="15" xlink:href="#lg2" y1="29" y2="29"/><linearGradient id="SVGID_9_" gradientUnits="userSpaceOnUse" x1="19" x2="22" xlink:href="#lg2" y1="29" y2="29"/><g id="rainy_day"><g><g><path d="m29 12h-1c-.5527344 0-1-.4477539-1-1s.4472656-1 1-1h1c.5527344 0 1 .4477539 1 1s-.4472656 1-1 1z" fill="url(#SVGID_1_)"/></g><g><path d="m25.6572266 6.3432617c-.2558594 0-.5117188-.0976563-.7070313-.2929688-.390625-.390625-.390625-1.0234375 0-1.4140625l.7070313-.7070313c.390625-.390625 1.0234375-.390625 1.4140625 0s.390625 1.0234375 0 1.4140625l-.7070313.7070314c-.1953125.1953125-.4511719.2929687-.7070312.2929687z" fill="url(#SVGID_2_)"/></g><g><circle cx="20" cy="11" fill="url(#SVGID_3_)" r="5"/></g><g><path d="m20 4c-.5527344 0-1-.4477539-1-1v-1c0-.5522461.4472656-1 1-1s1 .4477539 1 1v1c0 .5522461-.4472656 1-1 1z" fill="url(#SVGID_4_)"/></g><g><path d="m14.3432617 6.3432617c-.2558594 0-.5117188-.0976563-.7070313-.2924805l-.7075195-.7070312c-.390625-.390625-.390625-1.0239258-.0004883-1.4145508.390625-.390625 1.0239258-.3901367 1.4145508-.0004883l.7075195.7070313c.390625.390625.390625 1.0239258.0004883 1.4145508-.1953124.1953125-.4516601.2929687-.7075195.2929687z" fill="url(#SVGID_5_)"/></g><path d="m20 13c-.4433594 0-.8828125.050293-1.3154297.1499023-.7832031-2.4331054-3.0493164-4.1499023-5.6845703-4.1499023-3.3085938 0-6 2.6914063-6 6-2.7568359 0-5 2.2431641-5 5s2.2431641 5 5 5h13c3.3085938 0 6-2.6914063 6-6s-2.6914062-6-6-6z" fill="url(#SVGID_6_)"/><g><path d="m5.9990234 31c-.1499023 0-.3027344-.0336914-.4462891-.1054688-.4941406-.2470703-.6943359-.8476563-.4472656-1.3417969l1-2c.246582-.4936523.8457031-.6958008 1.3417969-.4472656.4941406.2470703.6943359.8476563.4472656 1.3417969l-1 2c-.1752929.350586-.5283203.5527344-.8955078.5527344z" fill="url(#SVGID_7_)"/></g><g><path d="m12.9990234 31c-.1499023 0-.3027344-.0336914-.4462891-.1054688-.4941406-.2470703-.6943359-.8476563-.4472656-1.3417969l1-2c.246582-.4936523.8457031-.6958008 1.3417969-.4472656.4941406.2470703.6943359.8476563.4472656 1.3417969l-1 2c-.1752929.350586-.5283203.5527344-.8955078.5527344z" fill="url(#SVGID_8_)"/></g><g><path d="m19.9990234 31c-.1503906 0-.3027344-.0336914-.4462891-.1054688-.4941406-.2470703-.6943359-.8476563-.4472656-1.3417969l1-2c.2480469-.4946289.8466797-.6948242 1.3417969-.4472656.4941406.2470703.6943359.8476563.4472656 1.3417969l-1 2c-.1757812.350586-.5283203.5527344-.8955078.5527344z" fill="url(#SVGID_9_)"/></g></g></g></svg>