<svg height="512" viewBox="0 0 32 32" width="512" xmlns="http://www.w3.org/2000/svg" xmlns:xlink="http://www.w3.org/1999/xlink"><linearGradient id="lg1"><stop offset="0" stop-color="#bbdefb"/><stop offset="1" stop-color="#64b5f6"/></linearGradient><linearGradient id="SVGID_1_" gradientUnits="userSpaceOnUse" x1="15.164" x2="31" xlink:href="#lg1" y1="10" y2="10"/><linearGradient id="SVGID_2_" gradientUnits="userSpaceOnUse" x1="1" x2="25" y1="16" y2="16"><stop offset="0" stop-color="#42a5f5"/><stop offset="1" stop-color="#1e88e5"/></linearGradient><linearGradient id="SVGID_3_" gradientUnits="userSpaceOnUse" x1="4.5" x2="7.5" xlink:href="#lg1" y1="28" y2="28"/><linearGradient id="SVGID_4_" gradientUnits="userSpaceOnUse" x1="11.5" x2="14.5" xlink:href="#lg1" y1="28" y2="28"/><linearGradient id="SVGID_5_" gradientUnits="userSpaceOnUse" x1="18.5" x2="21.5" xlink:href="#lg1" y1="28" y2="28"/><g id="rainy_night"><g><path d="m27.1635742 13c-3.3134766 0-6-2.6865234-6-6 0-2.0664063 1.0454102-3.8886719 2.6357422-4.9677734-.2104492-.0166016-.4213867-.0322266-.6357422-.0322266-4.4111328 0-8 3.5888672-8 8s3.5888672 8 8 8c3.859375 0 7.0893555-2.7470703 7.8369141-6.3886719-1.0400391.866211-2.3774414 1.3886719-3.8369141 1.3886719z" fill="url(#SVGID_1_)"/><path d="m19 12c-.4438477 0-.8833008.050293-1.3154297.1499023-.7836914-2.4331054-3.0493164-4.1499023-5.6845703-4.1499023-3.3085938 0-6 2.6914063-6 6-2.7568359 0-5 2.2431641-5 5s2.2431641 5 5 5h13c3.3085938 0 6-2.6914063 6-6s-2.6914062-6-6-6z" fill="url(#SVGID_2_)"/><g><g><path d="m5.4990234 30c-.1499023 0-.3027344-.0336914-.4462891-.1054688-.4941406-.2470703-.6943359-.8476563-.4472656-1.3417969l1-2c.2470703-.4936523.847168-.6958008 1.3417969-.4472656.4941406.2470703.6943359.8476563.4472656 1.3417969l-1 2c-.1752929.350586-.5283203.5527344-.8955078.5527344z" fill="url(#SVGID_3_)"/></g><g><path d="m12.4990234 30c-.1499023 0-.3027344-.0336914-.4462891-.1054688-.4941406-.2470703-.6943359-.8476563-.4472656-1.3417969l1-2c.2470703-.4936523.847168-.6958008 1.3417969-.4472656.4941406.2470703.6943359.8476563.4472656 1.3417969l-1 2c-.1752929.350586-.5283203.5527344-.8955078.5527344z" fill="url(#SVGID_4_)"/></g><g><path d="m19.4990234 30c-.1499023 0-.3027344-.0336914-.4462891-.1054688-.4941406-.2470703-.6943359-.8476563-.4472656-1.3417969l1-2c.2470703-.4936523.847168-.6958008 1.3417969-.4472656.4941406.2470703.6943359.8476563.4472656 1.3417969l-1 2c-.1752929.350586-.5283203.5527344-.8955078.5527344z" fill="url(#SVGID_5_)"/></g></g></g></g></svg>