<svg height="512" viewBox="0 0 32 32" width="512" xmlns="http://www.w3.org/2000/svg" xmlns:xlink="http://www.w3.org/1999/xlink"><linearGradient id="SVGID_1_" gradientUnits="userSpaceOnUse" x1="1" x2="31" y1="10" y2="10"><stop offset="0" stop-color="#42a5f5"/><stop offset="1" stop-color="#1e88e5"/></linearGradient><linearGradient id="lg1"><stop offset="0" stop-color="#bbdefb"/><stop offset="1" stop-color="#64b5f6"/></linearGradient><linearGradient id="SVGID_2_" gradientUnits="userSpaceOnUse" x1="21.968" x2="27" xlink:href="#lg1" y1="11" y2="11"/><linearGradient id="SVGID_3_" gradientUnits="userSpaceOnUse" x1="8" x2="11" xlink:href="#lg1" y1="29" y2="29"/><linearGradient id="SVGID_4_" gradientUnits="userSpaceOnUse" x1="14" x2="17" xlink:href="#lg1" y1="29" y2="29"/><linearGradient id="SVGID_5_" gradientUnits="userSpaceOnUse" x1="8" x2="11" xlink:href="#lg1" y1="23" y2="23"/><linearGradient id="SVGID_6_" gradientUnits="userSpaceOnUse" x1="14" x2="17" xlink:href="#lg1" y1="23" y2="23"/><linearGradient id="SVGID_7_" gradientUnits="userSpaceOnUse" x1="19" x2="24.464" xlink:href="#lg1" y1="26" y2="26"/><g id="sleet"><g><g><path d="m24 5c-.8481445 0-1.6879883.15625-2.4794922.4580078-1.0283203-2.6445312-3.597168-4.4580078-6.5205078-4.4580078-3.5532227 0-6.496582 2.6611328-6.9418945 6.0957031-.3486328-.0634765-.7016602-.0957031-1.0581055-.0957031-3.3085938 0-6 2.6914063-6 6s2.6914063 6 6 6h17c3.8598633 0 7-3.140625 7-7s-3.1401367-7-7-7z" fill="url(#SVGID_1_)"/><path d="m24 9c-.5473633 0-1.0688477.1474609-1.5498047.4384766-.4726563.2861328-.6240234.9003906-.3378906 1.3730469.2861328.4716797.9008789.6240234 1.3730469.3378906.6772461-.4082032 1.5151367.1191406 1.5146484.8505859 0 .5527344.4477539 1 1 1s1-.4472656 1-1c0-1.6542969-1.3457031-3-3-3z" fill="url(#SVGID_2_)"/><path d="m10.4472656 27.1054688c-.4956055-.2451172-1.0947266-.0458984-1.3417969.4472656l-1 2c-.2470703.4941406-.046875 1.0947266.4472656 1.3417969.1435548.071289.2963868.1054687.4462891.1054687.3671875 0 .7202148-.2021484.8955078-.5527344l1-2c.2470704-.4941406.0468751-1.0947265-.4472656-1.3417968z" fill="url(#SVGID_3_)"/><path d="m16.4472656 27.1054688c-.4960938-.2451172-1.0952148-.0458984-1.3417969.4472656l-1 2c-.2470703.4941406-.046875 1.0947266.4472656 1.3417969.1435548.071289.2963868.1054687.4462891.1054687.3671875 0 .7202148-.2021484.8955078-.5527344l1-2c.2470704-.4941406.0468751-1.0947265-.4472656-1.3417968z" fill="url(#SVGID_4_)"/><path d="m10.4472656 21.1054688c-.4956055-.2460938-1.0947266-.046875-1.3417969.4472656l-1 2c-.2470703.4941406-.046875 1.0947266.4472656 1.3417969.1435548.071289.2963868.1054687.4462891.1054687.3671875 0 .7202148-.2021484.8955078-.5527344l1-2c.2470704-.4941406.0468751-1.0947265-.4472656-1.3417968z" fill="url(#SVGID_5_)"/><path d="m16.4472656 21.1054688c-.4960938-.2460938-1.0952148-.046875-1.3417969.4472656l-1 2c-.2470703.4941406-.046875 1.0947266.4472656 1.3417969.1435548.071289.2963868.1054687.4462891.1054687.3671875 0 .7202148-.2021484.8955078-.5527344l1-2c.2470704-.4941406.0468751-1.0947265-.4472656-1.3417968z" fill="url(#SVGID_6_)"/><path d="m24.3300781 24.5c-.2768555-.4794922-.8891602-.6435547-1.3662109-.3662109l-.2319336.1337891v-.2675782c0-.5527344-.4477539-1-1-1s-1 .4472656-1 1v.2675781l-.2319336-.133789c-.4780273-.2773438-1.090332-.1132813-1.3662109.3662109-.2758789.4785156-.1123047 1.0898438.3662109 1.3662109l.2314453.1337891-.2314453.1337891c-.4785156.2763672-.6420898.8876953-.3662109 1.3662109.1855469.3212891.5214844.5.8671875.5.1694336 0 .3417969-.0429688.4990234-.1337891l.2319336-.1337891v.2675782c0 .5527344.4477539 1 1 1s1-.4472656 1-1v-.2675781l.2319336.1337891c.1572266.0908203.3295898.133789.4990234.133789.3457031 0 .6816406-.1787109.8671875-.5.2758789-.4785156.1123047-1.0898438-.3662109-1.3662109l-.2314453-.1337891.2314453-.1337891c.4785156-.2763671.6420898-.8876953.3662109-1.3662109z" fill="url(#SVGID_7_)"/></g></g></g></svg>