<svg height="512" viewBox="0 0 32 32" width="512" xmlns="http://www.w3.org/2000/svg" xmlns:xlink="http://www.w3.org/1999/xlink"><linearGradient id="SVGID_1_" gradientUnits="userSpaceOnUse" x1="1" x2="31" y1="10" y2="10"><stop offset="0" stop-color="#42a5f5"/><stop offset="1" stop-color="#1e88e5"/></linearGradient><linearGradient id="lg1"><stop offset="0" stop-color="#bbdefb"/><stop offset="1" stop-color="#64b5f6"/></linearGradient><linearGradient id="SVGID_2_" gradientUnits="userSpaceOnUse" x1="21.968" x2="27" xlink:href="#lg1" y1="11" y2="11"/><linearGradient id="SVGID_3_" gradientUnits="userSpaceOnUse" x1="7" x2="10.212" xlink:href="#lg1" y1="26" y2="26"/><linearGradient id="SVGID_4_" gradientUnits="userSpaceOnUse" x1="12" x2="15.212" xlink:href="#lg1" y1="26" y2="26"/><linearGradient id="SVGID_5_" gradientUnits="userSpaceOnUse" x1="17" x2="20.212" xlink:href="#lg1" y1="26" y2="26"/><linearGradient id="SVGID_6_" gradientUnits="userSpaceOnUse" x1="22" x2="25.212" xlink:href="#lg1" y1="26" y2="26"/><g id="smog"><g><path d="m24 5c-.8486328 0-1.6884766.15625-2.4794922.4580078-1.0283203-2.6445312-3.5976562-4.4580078-6.5205078-4.4580078-3.5532227 0-6.496582 2.6616211-6.9418945 6.0957031-.3486328-.0634765-.7016602-.0957031-1.0581055-.0957031-3.3085938 0-6 2.6914063-6 6s2.6914063 6 6 6h17c3.8598633 0 7-3.1401367 7-7s-3.1401367-7-7-7z" fill="url(#SVGID_1_)"/><g><path d="m26 13c-.5522461 0-1-.4477539-1-1-.0004883-.7319336-.8422852-1.2587891-1.5136719-.8510742-.4716797.2861328-1.0869141.1362305-1.3735352-.3364258-.2866211-.472168-.1357422-1.0874023.3364258-1.3735352.4804688-.2915039 1.0019532-.4389648 1.5507813-.4389648 1.6542969 0 3 1.3457031 3 3 0 .5522461-.4477539 1-1 1z" fill="url(#SVGID_2_)"/></g><g><path d="m8.277832 31c-.3671875 0-.7202148-.2021484-.8955078-.5527344-.5097656-1.0200195-.5097656-2.5581055 0-3.578125l.6582031-1.3164063c.2299805-.4599609.2299805-1.3291016 0-1.7890625l-.6582031-1.3164063c-.2470703-.4941406-.046875-1.0947266.4472656-1.3417969.4951172-.2470703 1.0952148-.0463867 1.3417969.4472656l.6582031 1.3164063c.5097656 1.0200195.5097656 2.5581055 0 3.578125l-.6582031 1.3164063c-.2299805.4599609-.2299805 1.3291016 0 1.7890625.2470703.4941406.046875 1.0947266-.4472656 1.3417969-.1435547.0717774-.2963867.1054688-.4462891.1054688z" fill="url(#SVGID_3_)"/></g><g><path d="m13.277832 31c-.3671875 0-.7202148-.2021484-.8955078-.5527344-.5097656-1.0200195-.5097656-2.5581055 0-3.578125l.6582031-1.3164063c.2299805-.4599609.2299805-1.3291016 0-1.7890625l-.6582031-1.3164063c-.2470703-.4941406-.046875-1.0947266.4472656-1.3417969.4960938-.2470703 1.0952148-.0463867 1.3417969.4472656l.6582031 1.3164063c.5097656 1.0200195.5097656 2.5581055 0 3.578125l-.6582031 1.3164063c-.2299805.4599609-.2299805 1.3291016 0 1.7890625.2470703.4941406.046875 1.0947266-.4472656 1.3417969-.1435547.0717774-.2963867.1054688-.4462891.1054688z" fill="url(#SVGID_4_)"/></g><g><path d="m18.277832 31c-.3671875 0-.7202148-.2021484-.8955078-.5527344-.5097656-1.0200195-.5097656-2.5581055 0-3.578125l.6582031-1.3164063c.2299805-.4599609.2299805-1.3291016 0-1.7890625l-.6582031-1.3164063c-.2470703-.4941406-.046875-1.0947266.4472656-1.3417969.4951172-.2470703 1.0947266-.0463867 1.3417969.4472656l.6582031 1.3164063c.5097656 1.0200195.5097656 2.5581055 0 3.578125l-.6582031 1.3164063c-.2299805.4599609-.2299805 1.3291016 0 1.7890625.2470703.4941406.046875 1.0947266-.4472656 1.3417969-.1435547.0717774-.2963867.1054688-.4462891.1054688z" fill="url(#SVGID_5_)"/></g><g><path d="m23.277832 31c-.3671875 0-.7202148-.2021484-.8955078-.5527344-.5097656-1.0200195-.5097656-2.5581055 0-3.578125l.6582031-1.3164063c.2299805-.4599609.2299805-1.3291016 0-1.7890625l-.6582031-1.3164063c-.2470703-.4941406-.046875-1.0947266.4472656-1.3417969.4956055-.2470703 1.0952148-.0463867 1.3417969.4472656l.6582031 1.3164063c.5097656 1.0200195.5097656 2.5581055 0 3.578125l-.6582031 1.3164063c-.2299805.4599609-.2299805 1.3291016 0 1.7890625.2470703.4941406.046875 1.0947266-.4472656 1.3417969-.1435547.0717774-.2963867.1054688-.4462891.1054688z" fill="url(#SVGID_6_)"/></g></g></g></svg>