<svg height="512" viewBox="0 0 32 32" width="512" xmlns="http://www.w3.org/2000/svg" xmlns:xlink="http://www.w3.org/1999/xlink"><linearGradient id="SVGID_1_" gradientUnits="userSpaceOnUse" x1="1" x2="31" y1="10" y2="10"><stop offset="0" stop-color="#42a5f5"/><stop offset="1" stop-color="#1e88e5"/></linearGradient><linearGradient id="lg1"><stop offset="0" stop-color="#bbdefb"/><stop offset="1" stop-color="#64b5f6"/></linearGradient><linearGradient id="SVGID_2_" gradientUnits="userSpaceOnUse" x1="21.968" x2="27" xlink:href="#lg1" y1="11" y2="11"/><linearGradient id="SVGID_3_" gradientUnits="userSpaceOnUse" x1="10" x2="12" xlink:href="#lg1" y1="26" y2="26"/><linearGradient id="SVGID_4_" gradientUnits="userSpaceOnUse" x1="15" x2="17" xlink:href="#lg1" y1="26" y2="26"/><linearGradient id="SVGID_5_" gradientUnits="userSpaceOnUse" x1="20" x2="22" xlink:href="#lg1" y1="26" y2="26"/><linearGradient id="SVGID_6_" gradientUnits="userSpaceOnUse" x1="7" x2="9" xlink:href="#lg1" y1="22" y2="22"/><linearGradient id="SVGID_7_" gradientUnits="userSpaceOnUse" x1="12" x2="14" xlink:href="#lg1" y1="22" y2="22"/><linearGradient id="SVGID_8_" gradientUnits="userSpaceOnUse" x1="18" x2="20" xlink:href="#lg1" y1="22" y2="22"/><linearGradient id="SVGID_9_" gradientUnits="userSpaceOnUse" x1="23" x2="25" xlink:href="#lg1" y1="22" y2="22"/><linearGradient id="SVGID_10_" gradientUnits="userSpaceOnUse" x1="7" x2="9" xlink:href="#lg1" y1="30" y2="30"/><linearGradient id="SVGID_11_" gradientUnits="userSpaceOnUse" x1="12" x2="14" xlink:href="#lg1" y1="30" y2="30"/><linearGradient id="SVGID_12_" gradientUnits="userSpaceOnUse" x1="18" x2="20" xlink:href="#lg1" y1="30" y2="30"/><linearGradient id="SVGID_13_" gradientUnits="userSpaceOnUse" x1="23" x2="25" xlink:href="#lg1" y1="30" y2="30"/><g id="snow"><g><path d="m24 5c-.8486328 0-1.6884766.15625-2.4794922.4580078-1.0283203-2.6445312-3.5976562-4.4580078-6.5205078-4.4580078-3.5537109 0-6.4970703 2.6616211-6.9414063 6.0957031-.3486328-.0634765-.7021484-.0957031-1.0585937-.0957031-3.3085938 0-6 2.6914063-6 6s2.6914063 6 6 6h17c3.859375 0 7-3.1401367 7-7s-3.140625-7-7-7z" fill="url(#SVGID_1_)"/><g><path d="m26 13c-.5527344 0-1-.4477539-1-1 0-.7319336-.8447266-1.2563477-1.5136719-.8510742-.4707031.2871094-1.0869141.1357422-1.3740234-.3364258-.2861328-.472168-.1357422-1.0874023.3369141-1.3735352.4804687-.2915039 1.0019531-.4389648 1.5507812-.4389648 1.6542969 0 3 1.3457031 3 3 0 .5522461-.4472656 1-1 1z" fill="url(#SVGID_2_)"/></g><g><circle cx="11" cy="26" fill="url(#SVGID_3_)" r="1"/></g><g><circle cx="16" cy="26" fill="url(#SVGID_4_)" r="1"/></g><g><circle cx="21" cy="26" fill="url(#SVGID_5_)" r="1"/></g><g><circle cx="8" cy="22" fill="url(#SVGID_6_)" r="1"/></g><g><circle cx="13" cy="22" fill="url(#SVGID_7_)" r="1"/></g><g><circle cx="19" cy="22" fill="url(#SVGID_8_)" r="1"/></g><g><circle cx="24" cy="22" fill="url(#SVGID_9_)" r="1"/></g><g><circle cx="8" cy="30" fill="url(#SVGID_10_)" r="1"/></g><g><circle cx="13" cy="30" fill="url(#SVGID_11_)" r="1"/></g><g><circle cx="19" cy="30" fill="url(#SVGID_12_)" r="1"/></g><g><circle cx="24" cy="30" fill="url(#SVGID_13_)" r="1"/></g></g></g></svg>