<svg height="512" viewBox="0 0 32 32" width="512" xmlns="http://www.w3.org/2000/svg" xmlns:xlink="http://www.w3.org/1999/xlink"><linearGradient id="lg1"><stop offset="0" stop-color="#42a5f5"/><stop offset="1" stop-color="#1e88e5"/></linearGradient><linearGradient id="SVGID_1_" gradientUnits="userSpaceOnUse" x1="12" x2="20" xlink:href="#lg1" y1="7.5" y2="7.5"/><linearGradient id="SVGID_2_" gradientUnits="userSpaceOnUse" x1="1.375" x2="14.402" xlink:href="#lg1" y1="10.451" y2="10.451"/><linearGradient id="SVGID_3_" gradientUnits="userSpaceOnUse" x1="1.376" x2="14.402" xlink:href="#lg1" y1="21.549" y2="21.549"/><linearGradient id="SVGID_4_" gradientUnits="userSpaceOnUse" x1="12" x2="20" xlink:href="#lg1" y1="24.5" y2="24.5"/><linearGradient id="SVGID_5_" gradientUnits="userSpaceOnUse" x1="17.599" x2="30.625" xlink:href="#lg1" y1="21.549" y2="21.549"/><linearGradient id="SVGID_6_" gradientUnits="userSpaceOnUse" x1="17.599" x2="30.625" xlink:href="#lg1" y1="10.451" y2="10.451"/><linearGradient id="lg2"><stop offset="0" stop-color="#bbdefb"/><stop offset="1" stop-color="#64b5f6"/></linearGradient><linearGradient id="SVGID_7_" gradientUnits="userSpaceOnUse" x1="13" x2="19" xlink:href="#lg2" y1="9" y2="9"/><linearGradient id="SVGID_8_" gradientUnits="userSpaceOnUse" x1="7.938" x2="11.938" xlink:href="#lg2" y1="12.5" y2="12.5"/><linearGradient id="SVGID_9_" gradientUnits="userSpaceOnUse" x1="7.938" x2="11.938" xlink:href="#lg2" y1="19.5" y2="19.5"/><linearGradient id="SVGID_10_" gradientUnits="userSpaceOnUse" x1="13" x2="19.001" xlink:href="#lg2" y1="23.001" y2="23.001"/><linearGradient id="SVGID_11_" gradientUnits="userSpaceOnUse" x1="20.063" x2="24.063" xlink:href="#lg2" y1="19.5" y2="19.5"/><linearGradient id="SVGID_12_" gradientUnits="userSpaceOnUse" x1="20.063" x2="24.063" xlink:href="#lg2" y1="12.499" y2="12.499"/><linearGradient id="SVGID_13_" gradientUnits="userSpaceOnUse" x1="12" x2="20" xlink:href="#lg2" y1="16" y2="16"/><g id="snowflake"><g><g><g><path d="m15 5.4140625v7.5859375c0 .5522461.4477539 1 1 1s1-.4477539 1-1v-7.5859375l2.7070313-2.7070313c.390625-.390625.390625-1.0234375 0-1.4140625s-1.0234375-.390625-1.4140625 0l-2.2929688 2.2929688-2.2929688-2.2929688c-.390625-.390625-1.0234375-.390625-1.4140625 0s-.390625 1.0234375 0 1.4140625z" fill="url(#SVGID_1_)"/><path d="m2.375 12.5986328c.0854492 0 .1723633-.0112305.2592773-.034668l3.6977539-.9902344 6.5698242 3.7929688c.1577148.0908203.3295898.1337891.4990234.1337891.3457031 0 .6816406-.1791992.8671875-.5.2758789-.4785156.1123047-1.0898438-.3662109-1.3662109l-6.5698241-3.7929688-.9907227-3.6977539c-.1430664-.5332031-.6904297-.8525391-1.2246094-.7070313-.5336914.1430664-.8500976.6914063-.7070312 1.2246094l.8393554 3.1323242-3.1323242.8388672c-.5332031.1425781-.8500977.690918-.7070313 1.2246094.119629.4467773.5234376.7416992.9653321.7416992z" fill="url(#SVGID_2_)"/><path d="m13.9023438 18.3666992c.4785156-.2763672.6420898-.8876953.3662109-1.3662109-.2773438-.4780273-.8886719-.6435547-1.3662109-.3662109l-6.5698242 3.7929688-3.6977539-.9907227c-.5336914-.1445313-1.081543.1738281-1.2246094.7070313s.1733398 1.081543.7070313 1.2246094l3.1318359.8393555-.8393555 3.1323241c-.1430664.5332031.1733398 1.081543.7070313 1.2246094.0864258.0234375.1738281.034668.2592773.034668.4414063 0 .8457031-.2949219.965332-.7416992l.9912109-3.6977539z" fill="url(#SVGID_3_)"/><path d="m17 26.5854492v-7.5854492c0-.5522461-.4472656-1-.9995117-1s-1 .4477539-1 1v7.5859375l-2.7070313 2.7070313c-.390625.390625-.390625 1.0234375 0 1.4140625s1.0234375.390625 1.4140625 0l2.2929688-2.2924805 2.2924805 2.2929688c.1953125.1953124.4511718.2929687.7070312.2929687s.5117188-.0976563.7070313-.2929688c.390625-.3901367.390625-1.0234375 0-1.4140625z" fill="url(#SVGID_4_)"/><path d="m29.3662109 19.4365234-3.6982422.9902344-6.5693359-3.7929688c-.4785156-.2758788-1.0898437-.1123046-1.3662109.366211-.2763672.4780273-.1123047 1.0898438.3662109 1.3662109l6.5693359 3.7929688.9912109 3.6977539c.1201172.4467773.5234375.7416992.9648438.7416992.0859375 0 .1728516-.0112305.2597656-.034668.5332031-.1430664.8505859-.6914063.7070313-1.2246094l-.8398438-3.1323242 3.1328125-.8388672c.5332031-.1425781.8496094-.690918.7070313-1.2246094s-.6914062-.8500976-1.2246094-.7070312z" fill="url(#SVGID_5_)"/><path d="m18.0986328 13.6337891c-.4785156.2763672-.6425781.8881836-.3662109 1.3662109.1855469.3208008.5214844.5.8671875.5.1699219 0 .3417969-.0429688.4990234-.1337891l6.5693359-3.7929688 3.6982422.9902344c.0869141.0234375.1738281.034668.2597656.034668.4414063-.0004883.8457031-.2949219.9648438-.7416992.1425781-.5336914-.1738281-1.0820313-.7070313-1.2246094l-3.1328125-.8388672.8398438-3.1323242c.1435547-.5332031-.1738281-1.081543-.7070313-1.2246094-.53125-.1445313-1.0810547.1733398-1.2246094.7070313l-.9912109 3.6977539z" fill="url(#SVGID_6_)"/></g><g><g><path d="m18 10h-4c-.5522461 0-1-.4477539-1-1s.4477539-1 1-1h4c.5527344 0 1 .4477539 1 1s-.4472656 1-1 1z" fill="url(#SVGID_7_)"/></g><g><path d="m8.9365234 15.2324219c-.1694336 0-.3413086-.0429688-.4990234-.1337891-.4780273-.2763672-.6420898-.8876953-.3662109-1.3662109l2-3.4643555c.2763672-.4785156.8857422-.6435547 1.3662109-.3662109.4780273.2763672.6420898.8876953.3662109 1.3662109l-2 3.4643555c-.1855468.3208008-.5214843.5-.8671875.5z" fill="url(#SVGID_8_)"/></g><g><path d="m10.9389648 22.2329102c-.3457031 0-.6816406-.1791992-.8671875-.5l-2.0004883-3.4643555c-.2758788-.4780274-.1123046-1.0898438.366211-1.3662109.4770508-.2768555 1.0893555-.1123047 1.3662109.3662109l2.0004883 3.4643555c.2758789.4780273.1123047 1.0898438-.3662109 1.3662109-.1572266.0908203-.3295899.1337891-.4990235.1337891z" fill="url(#SVGID_9_)"/></g><g><path d="m14.0004883 24.0009766c-.5522461 0-1-.4477539-1-1s.4477539-1 1-1l4.0004883-.0004883c.5517578 0 1 .4477539 1 1s-.4472656 1-1 1z" fill="url(#SVGID_10_)"/></g><g><path d="m21.0625 22.2324219c-.1699219 0-.3417969-.0429688-.4990234-.1337891-.4785156-.2763672-.6425781-.8876953-.3662109-1.3662109l2-3.4648438c.2763672-.4790039.8886719-.6425781 1.3662109-.3662109.4785156.2763672.6425781.8876953.3662109 1.3662109l-2 3.4648438c-.1855469.3208008-.5214844.5-.8671875.5z" fill="url(#SVGID_11_)"/></g><g><path d="m23.0644531 15.2314453c-.3457031 0-.6816406-.1791992-.8671875-.5l-2.0009766-3.4643555c-.2763672-.4780273-.1123047-1.0898438.3662109-1.3657227.4755859-.2773438 1.0888672-.112793 1.3662109.3657227l2.0009766 3.4643555c.2763672.4780273.1123047 1.0898438-.3662109 1.3657227-.1572265.0913086-.3291015.1342773-.4990234.1342773z" fill="url(#SVGID_12_)"/></g><path d="m16 12c-2.2055664 0-4 1.7944336-4 4s1.7944336 4 4 4c2.2060547 0 4-1.7944336 4-4s-1.7939453-4-4-4z" fill="url(#SVGID_13_)"/></g></g></g></g></svg>