<svg height="512" viewBox="0 0 32 32" width="512" xmlns="http://www.w3.org/2000/svg" xmlns:xlink="http://www.w3.org/1999/xlink"><linearGradient id="lg1"><stop offset="0" stop-color="#bbdefb"/><stop offset="1" stop-color="#64b5f6"/></linearGradient><linearGradient id="SVGID_1_" gradientUnits="userSpaceOnUse" x1="15.164" x2="31" xlink:href="#lg1" y1="9" y2="9"/><linearGradient id="SVGID_2_" gradientUnits="userSpaceOnUse" x1="6" x2="8" xlink:href="#lg1" y1="30" y2="30"/><linearGradient id="SVGID_3_" gradientUnits="userSpaceOnUse" x1="12" x2="14" xlink:href="#lg1" y1="30" y2="30"/><linearGradient id="SVGID_4_" gradientUnits="userSpaceOnUse" x1="18" x2="20" xlink:href="#lg1" y1="30" y2="30"/><linearGradient id="SVGID_5_" gradientUnits="userSpaceOnUse" x1="9" x2="11" xlink:href="#lg1" y1="26" y2="26"/><linearGradient id="SVGID_6_" gradientUnits="userSpaceOnUse" x1="3" x2="5" xlink:href="#lg1" y1="26" y2="26"/><linearGradient id="SVGID_7_" gradientUnits="userSpaceOnUse" x1="15" x2="17" xlink:href="#lg1" y1="26" y2="26"/><linearGradient id="SVGID_8_" gradientUnits="userSpaceOnUse" x1="21" x2="23" xlink:href="#lg1" y1="26" y2="26"/><linearGradient id="SVGID_9_" gradientUnits="userSpaceOnUse" x1="13" x2="14" xlink:href="#lg1" y1="30" y2="30"/><linearGradient id="SVGID_13_" gradientUnits="userSpaceOnUse" x1="1" x2="25" y1="15" y2="15"><stop offset="0" stop-color="#42a5f5"/><stop offset="1" stop-color="#1e88e5"/></linearGradient><g id="snowy_night"><g><path d="m27.1635742 12c-3.3134766 0-6-2.6865234-6-6 0-2.0664063 1.0454102-3.8886719 2.6357422-4.9677734-.2104492-.0166016-.4213867-.0322266-.6357422-.0322266-4.4111328 0-8 3.5888672-8 8s3.5888672 8 8 8c3.859375 0 7.0893555-2.7470703 7.8369141-6.3886719-1.0400391.866211-2.3774414 1.3886719-3.8369141 1.3886719z" fill="url(#SVGID_1_)"/><circle cx="7" cy="30" fill="url(#SVGID_2_)" r="1"/><circle cx="13" cy="30" fill="url(#SVGID_3_)" r="1"/><circle cx="19" cy="30" fill="url(#SVGID_4_)" r="1"/><circle cx="10" cy="26" fill="url(#SVGID_5_)" r="1"/><circle cx="4" cy="26" fill="url(#SVGID_6_)" r="1"/><circle cx="16" cy="26" fill="url(#SVGID_7_)" r="1"/><circle cx="22" cy="26" fill="url(#SVGID_8_)" r="1"/><path d="m13 29c.5527344 0 1 .4477539 1 1s-.4472656 1-1 1z" fill="url(#SVGID_9_)"/><circle cx="19" cy="30" fill="url(#SVGID_4_)" r="1"/><circle cx="16" cy="26" fill="url(#SVGID_7_)" r="1"/><circle cx="22" cy="26" fill="url(#SVGID_8_)" r="1"/><path d="m19 11c-.4438477 0-.8833008.050293-1.3154297.1499023-.7836914-2.4331054-3.0493164-4.1499023-5.6845703-4.1499023-3.3085938 0-6 2.6914063-6 6-2.7568359 0-5 2.2431641-5 5s2.2431641 5 5 5h13c3.3085938 0 6-2.6914063 6-6s-2.6914062-6-6-6z" fill="url(#SVGID_13_)"/></g></g></svg>