<svg height="512" viewBox="0 0 32 32" width="512" xmlns="http://www.w3.org/2000/svg" xmlns:xlink="http://www.w3.org/1999/xlink"><linearGradient id="lg1"><stop offset="0" stop-color="#42a5f5"/><stop offset="1" stop-color="#1e88e5"/></linearGradient><linearGradient id="SVGID_1_" gradientUnits="userSpaceOnUse" x1="11" x2="21" xlink:href="#lg1" y1="26" y2="26"/><linearGradient id="SVGID_2_" gradientUnits="userSpaceOnUse" x1="9" x2="23" y1="13" y2="13"><stop offset="0" stop-color="#bbdefb"/><stop offset="1" stop-color="#64b5f6"/></linearGradient><linearGradient id="SVGID_3_" gradientUnits="userSpaceOnUse" x1="15" x2="17" xlink:href="#lg1" y1="3" y2="3"/><linearGradient id="SVGID_4_" gradientUnits="userSpaceOnUse" x1="25" x2="29" xlink:href="#lg1" y1="14" y2="14"/><linearGradient id="SVGID_5_" gradientUnits="userSpaceOnUse" x1="22.071" x2="25.485" xlink:href="#lg1" y1="6.223" y2="6.223"/><linearGradient id="SVGID_6_" gradientUnits="userSpaceOnUse" x1="6.515" x2="9.931" xlink:href="#lg1" y1="6.223" y2="6.223"/><linearGradient id="SVGID_7_" gradientUnits="userSpaceOnUse" x1="3" x2="7.002" xlink:href="#lg1" y1="14" y2="14"/><linearGradient id="SVGID_8_" gradientUnits="userSpaceOnUse" x1="1" x2="31" xlink:href="#lg1" y1="18" y2="18"/><g id="sunset"><g><path d="m20.7070313 25.2929688c-.390625-.390625-1.0234375-.390625-1.4140625 0l-2.2929688 2.2929687v-5.5859375c0-.5527344-.4472656-1-1-1s-1 .4472656-1 1v5.5859375l-2.2929688-2.2929688c-.390625-.390625-1.0234375-.390625-1.4140625 0s-.390625 1.0234375 0 1.4140625l4 4c.1953126.1953126.4511719.2929688.7070313.2929688s.5117188-.0976563.7070313-.2929688l4-4c.390625-.3906249.390625-1.0234374 0-1.4140624z" fill="url(#SVGID_1_)"/><path d="m16 7c-3.859375 0-7 3.140625-7 7 0 1.7324219.6386719 3.390625 1.7988281 4.671875.1894532.2089844.4589844.328125.741211.328125h8.9199219c.2822266 0 .5517578-.1191406.7412109-.328125 1.1601562-1.28125 1.7988281-2.9394531 1.7988281-4.671875 0-3.859375-3.140625-7-7-7z" fill="url(#SVGID_2_)"/><g><path d="m16 5c-.5527344 0-1-.4472656-1-1v-2c0-.5527344.4472656-1 1-1s1 .4472656 1 1v2c0 .5527344-.4472656 1-1 1z" fill="url(#SVGID_3_)"/></g><g><path d="m28 15h-2c-.5527344 0-1-.4472656-1-1s.4472656-1 1-1h2c.5527344 0 1 .4472656 1 1s-.4472656 1-1 1z" fill="url(#SVGID_4_)"/></g><g><path d="m23.0712891 7.9296875c-.2558594 0-.5117188-.0976563-.7070313-.2929688-.390625-.3896484-.390625-1.0234375 0-1.4140625l1.4140625-1.4150391c.390625-.390625 1.0234375-.390625 1.4140625 0 .390625.3896484.390625 1.0234375 0 1.4140625l-1.4140625 1.4150391c-.1953125.1953126-.4511719.2929688-.7070312.2929688z" fill="url(#SVGID_5_)"/></g><g><path d="m8.9306641 7.9296875c-.2558594 0-.5117188-.0976563-.7070313-.2929688l-1.4160156-1.415039c-.390625-.3896484-.390625-1.0234375 0-1.4140625s1.0234375-.390625 1.4140625 0l1.4160156 1.4150391c.390625.3896484.390625 1.0234375 0 1.4140625-.1953125.1953125-.4511719.2929687-.7070312.2929687z" fill="url(#SVGID_6_)"/></g><g><path d="m6.0019531 15h-2.0019531c-.5527344 0-1-.4472656-1-1s.4472656-1 1-1h2.0019531c.5527344 0 1 .4472656 1 1s-.4472656 1-1 1z" fill="url(#SVGID_7_)"/></g><g><path d="m30 19h-28c-.5527344 0-1-.4472656-1-1s.4472656-1 1-1h28c.5527344 0 1 .4472656 1 1s-.4472656 1-1 1z" fill="url(#SVGID_8_)"/></g></g></g></svg>