<svg height="512" viewBox="0 0 32 32" width="512" xmlns="http://www.w3.org/2000/svg" xmlns:xlink="http://www.w3.org/1999/xlink"><linearGradient id="lg1"><stop offset="0" stop-color="#bbdefb"/><stop offset="1" stop-color="#64b5f6"/></linearGradient><linearGradient id="SVGID_1_" gradientUnits="userSpaceOnUse" x1="15" x2="17" xlink:href="#lg1" y1="3" y2="3"/><linearGradient id="SVGID_2_" gradientUnits="userSpaceOnUse" x1="1" x2="5" xlink:href="#lg1" y1="16" y2="16"/><linearGradient id="SVGID_3_" gradientUnits="userSpaceOnUse" x1="15" x2="17" xlink:href="#lg1" y1="29" y2="29"/><linearGradient id="SVGID_4_" gradientUnits="userSpaceOnUse" x1="4" x2="8.515" xlink:href="#lg1" y1="25.743" y2="25.743"/><linearGradient id="SVGID_5_" gradientUnits="userSpaceOnUse" x1="4" x2="8.515" xlink:href="#lg1" y1="6.257" y2="6.257"/><linearGradient id="lg2"><stop offset="0" stop-color="#42a5f5"/><stop offset="1" stop-color="#1e88e5"/></linearGradient><linearGradient id="SVGID_6_" gradientUnits="userSpaceOnUse" x1="7" x2="25" xlink:href="#lg2" y1="16" y2="16"/><linearGradient id="SVGID_7_" gradientUnits="userSpaceOnUse" x1="17" x2="31" xlink:href="#lg1" y1="16" y2="16"/><linearGradient id="SVGID_8_" gradientUnits="userSpaceOnUse" x1="21" x2="27" xlink:href="#lg2" y1="16" y2="16"/><g id="hot_temperature"><g><g><path d="m16 5c-.5522461 0-1-.4477539-1-1v-2c0-.5522461.4477539-1 1-1s1 .4477539 1 1v2c0 .5522461-.4477539 1-1 1z" fill="url(#SVGID_1_)"/></g><g><path d="m4 17h-2c-.5522461 0-1-.4477539-1-1s.4477539-1 1-1h2c.5522461 0 1 .4477539 1 1s-.4477539 1-1 1z" fill="url(#SVGID_2_)"/></g><g><path d="m16 31c-.5522461 0-1-.4477539-1-1v-2c0-.5522461.4477539-1 1-1s1 .4477539 1 1v2c0 .5522461-.4477539 1-1 1z" fill="url(#SVGID_3_)"/></g><g><path d="m5 28c-.2558594 0-.5117188-.0976563-.7070313-.2929688-.390625-.390625-.390625-1.0234375 0-1.4140625l2.5146484-2.5146484c.390625-.390625 1.0234375-.390625 1.4140625 0s.390625 1.0234375 0 1.4140625l-2.5146484 2.5146484c-.1953124.1953126-.4511718.2929688-.7070312.2929688z" fill="url(#SVGID_4_)"/></g><g><path d="m7.5146484 8.5146484c-.2558594 0-.5117188-.0976563-.7070313-.2929688l-2.5146483-2.5146483c-.390625-.390625-.390625-1.0234375 0-1.4140625s1.0234375-.390625 1.4140625 0l2.5146484 2.5146484c.390625.390625.390625 1.0234375 0 1.4140625-.1953125.1953125-.4511719.2929687-.7070313.2929687z" fill="url(#SVGID_5_)"/></g><path d="m16 7c-4.9624023 0-9 4.0375977-9 9s4.0375977 9 9 9 9-4.0375977 9-9-4.0375977-9-9-9z" fill="url(#SVGID_6_)"/><path d="m29 19.1108398v-13.1108398c0-2.7568359-2.2431641-5-5-5s-5 2.2431641-5 5v13.1108398c-1.2763672 1.3056641-2 3.0625-2 4.8891602 0 3.8598633 3.1401367 7 7 7s7-3.1401367 7-7c0-1.8266602-.7236328-3.5834961-2-4.8891602z" fill="url(#SVGID_7_)"/><path d="m25 21.184082v-15.184082c0-.5522461-.4477539-1-1-1s-1 .4477539-1 1v15.184082c-1.1616211.4145508-2 1.5141602-2 2.815918 0 1.6542969 1.3457031 3 3 3s3-1.3457031 3-3c0-1.3017578-.8383789-2.4013672-2-2.815918z" fill="url(#SVGID_8_)"/></g></g></svg>