<svg height="512" viewBox="0 0 32 32" width="512" xmlns="http://www.w3.org/2000/svg" xmlns:xlink="http://www.w3.org/1999/xlink"><linearGradient id="SVGID_1_" gradientUnits="userSpaceOnUse" x1="18" x2="26" y1="21.5" y2="21.5"><stop offset="0" stop-color="#42a5f5"/><stop offset="1" stop-color="#1e88e5"/></linearGradient><linearGradient id="SVGID_2_" gradientUnits="userSpaceOnUse" x1="6" x2="22" y1="16" y2="16"><stop offset="0" stop-color="#bbdefb"/><stop offset="1" stop-color="#64b5f6"/></linearGradient><g id="thunder"><g><g><path d="m18.9990234 31c-.1640625 0-.3300781-.0400391-.4833984-.1254883-.4833984-.2675781-.6582031-.8764648-.390625-1.359375l3.609375-6.5102539-1.7373047-.0048828c-.3535156-.0009766-.6806641-.1889648-.859375-.4941406-.1796875-.3051758-.1835938-.6821289-.0117188-.9916992l5-9c.2685547-.4824219.8769531-.6572266 1.359375-.3881836.4833984.2680664.6572266.8769531.3886719 1.3598633l-4.1767578 7.519043 1.7353516.0048828c.3535156.0009766.6806641.1889648.859375.4936523.1787109.3051758.1835938.6821289.0126953.9912109l-4.4296875 7.9902344c-.1826172.3295898-.5244141.5151367-.8759766.5151367z" fill="url(#SVGID_1_)"/></g><path d="m21.8623047 11.4926758c-.1796875-.3051758-.5078125-.4926758-.8623047-.4926758h-3.5234375l3.4521484-8.628418c.1230469-.3081055.0849609-.6572266-.1005859-.9321289-.1865234-.2749023-.4960937-.4394531-.828125-.4394531h-11c-.5043945 0-.9296875.3754883-.9921875.8759766l-2 16c-.0356445.284668.0527344.5708008.2426758.7856445.1894531.215332.4628906.3383789.7495117.3383789h3v11c0 .4555664.3081055.8535156.7490234.9682617.0834961.0214844.1679688.0317383.2509766.0317383.3564453 0 .6948242-.1914063.8740234-.5141602l10-18c.171875-.3100585.1679688-.6875-.0117187-.993164z" fill="url(#SVGID_2_)"/></g></g></svg>