<svg height="512" viewBox="0 0 32 32" width="512" xmlns="http://www.w3.org/2000/svg" xmlns:xlink="http://www.w3.org/1999/xlink"><linearGradient id="SVGID_1_" gradientUnits="userSpaceOnUse" x1="1" x2="31" y1="10" y2="10"><stop offset="0" stop-color="#42a5f5"/><stop offset="1" stop-color="#1e88e5"/></linearGradient><linearGradient id="lg1"><stop offset="0" stop-color="#bbdefb"/><stop offset="1" stop-color="#64b5f6"/></linearGradient><linearGradient id="SVGID_2_" gradientUnits="userSpaceOnUse" x1="21.968" x2="27" xlink:href="#lg1" y1="11" y2="11"/><linearGradient id="SVGID_3_" gradientUnits="userSpaceOnUse" x1="11" x2="21" xlink:href="#lg1" y1="24" y2="24"/><linearGradient id="SVGID_4_" gradientUnits="userSpaceOnUse" x1="6" x2="9" xlink:href="#lg1" y1="29" y2="29"/><linearGradient id="SVGID_5_" gradientUnits="userSpaceOnUse" x1="18" x2="21" xlink:href="#lg1" y1="29" y2="29"/><linearGradient id="SVGID_6_" gradientUnits="userSpaceOnUse" x1="23" x2="26" xlink:href="#lg1" y1="29" y2="29"/><linearGradient id="SVGID_7_" gradientUnits="userSpaceOnUse" x1="6" x2="9" xlink:href="#lg1" y1="23" y2="23"/><linearGradient id="SVGID_8_" gradientUnits="userSpaceOnUse" x1="23" x2="26" xlink:href="#lg1" y1="23" y2="23"/><g id="thunder_storm"><g><path d="m24 5c-.8486328 0-1.6884766.15625-2.4794922.4580078-1.0283203-2.6445312-3.5976562-4.4580078-6.5205078-4.4580078-3.5532227 0-6.496582 2.6616211-6.9418945 6.0957031-.3486328-.0634765-.7016602-.0957031-1.0581055-.0957031-3.3085938 0-6 2.6914063-6 6s2.6914063 6 6 6h17c3.859375 0 7-3.1401367 7-7s-3.140625-7-7-7z" fill="url(#SVGID_1_)"/><g><path d="m26 13c-.5527344 0-1-.4477539-1-1 0-.7314453-.84375-1.2558594-1.5136719-.8510742-.4716797.2861328-1.0869141.1362305-1.3740234-.3364258-.2861328-.472168-.1357422-1.0874023.3369141-1.3735352.4804687-.2915039 1.0019531-.4389648 1.5507812-.4389648 1.6542969 0 3 1.3457031 3 3 0 .5522461-.4472656 1-1 1z" fill="url(#SVGID_2_)"/></g><path d="m20.8818359 20.5283203c-.1738281-.3251953-.5126953-.5283203-.8818359-.5283203h-1.6123047l.5605469-1.6835938c.1025391-.3051758.0507813-.6401367-.1367188-.9008789-.1884765-.2612304-.4902343-.4155273-.8115234-.4155273h-5c-.4887695 0-.90625.3535156-.9863281.8354492l-1 6c-.0483398.2900391.0332031.5864258.2231445.8110352.1899414.2241211.4692383.3535156.7631836.3535156h1.8193359l-.8056641 4.8354492c-.0776367.465332.1801758.9208984.6186523 1.0942383.119629.0478516.2441407.0703125.3671876.0703125.3266602 0 .6425781-.1601563.8325195-.4453125l6-9c.2041016-.3066406.2236329-.7011719.0498047-1.0263672z" fill="url(#SVGID_3_)"/><g><path d="m6.9990234 31c-.1499023 0-.3027344-.0336914-.4462891-.1054688-.4941406-.2470703-.6943359-.8476563-.4472656-1.3417969l1-2c.2470703-.4941406.8461914-.6948242 1.3417969-.4472656.4941406.2470703.6943359.8476563.4472656 1.3417969l-1 2c-.1752929.350586-.5283203.5527344-.8955078.5527344z" fill="url(#SVGID_4_)"/></g><g><path d="m18.9990234 31c-.1503906 0-.3027344-.0336914-.4462891-.1054688-.4941406-.2470703-.6943359-.8476563-.4472656-1.3417969l1-2c.2480469-.4941406.8466797-.6943359 1.3417969-.4472656.4941406.2470703.6943359.8476563.4472656 1.3417969l-1 2c-.1757812.350586-.5283203.5527344-.8955078.5527344z" fill="url(#SVGID_5_)"/></g><g><path d="m23.9990234 31c-.1503906 0-.3027344-.0336914-.4462891-.1054688-.4941406-.2470703-.6943359-.8476563-.4472656-1.3417969l1-2c.2470703-.4941406.8476563-.6943359 1.3417969-.4472656s.6943359.8476563.4472656 1.3417969l-1 2c-.1757812.350586-.5283203.5527344-.8955078.5527344z" fill="url(#SVGID_6_)"/></g><g><path d="m6.9990234 25c-.1499023 0-.3027344-.0336914-.4462891-.1054688-.4941406-.2470703-.6943359-.8476563-.4472656-1.3417969l1-2c.2470703-.4936523.8461914-.6943359 1.3417969-.4472656.4941406.2470703.6943359.8476563.4472656 1.3417969l-1 2c-.1752929.350586-.5283203.5527344-.8955078.5527344z" fill="url(#SVGID_7_)"/></g><g><path d="m23.9990234 25c-.1503906 0-.3027344-.0336914-.4462891-.1054688-.4941406-.2470703-.6943359-.8476563-.4472656-1.3417969l1-2c.2470703-.4946289.8476563-.6948242 1.3417969-.4472656.4941406.2470703.6943359.8476563.4472656 1.3417969l-1 2c-.1757812.350586-.5283203.5527344-.8955078.5527344z" fill="url(#SVGID_8_)"/></g></g></g></svg>