<svg height="512" viewBox="0 0 32 32" width="512" xmlns="http://www.w3.org/2000/svg" xmlns:xlink="http://www.w3.org/1999/xlink"><linearGradient id="lg1"><stop offset="0" stop-color="#42a5f5"/><stop offset="1" stop-color="#1e88e5"/></linearGradient><linearGradient id="SVGID_1_" gradientUnits="userSpaceOnUse" x1="11" x2="17" xlink:href="#lg1" y1="21.5" y2="21.5"/><linearGradient id="SVGID_2_" gradientUnits="userSpaceOnUse" x1="15" x2="17" xlink:href="#lg1" y1="2.5" y2="2.5"/><linearGradient id="SVGID_3_" gradientUnits="userSpaceOnUse" x1="2" x2="30" xlink:href="#lg1" y1="10" y2="10"/><linearGradient id="SVGID_4_" gradientUnits="userSpaceOnUse" x1="11" x2="21" y1="10" y2="10"><stop offset="0" stop-color="#bbdefb"/><stop offset="1" stop-color="#64b5f6"/></linearGradient><g id="umbrella"><g><g><path d="m14 31c-1.6542969 0-3-1.3457031-3-3 0-.5522461.4472656-1 1-1s1 .4477539 1 1c0 .5512695.4482422 1 1 1s1-.4487305 1-1v-15c0-.5522461.4472656-1 1-1s1 .4477539 1 1v15c0 1.6542969-1.3457031 3-3 3z" fill="url(#SVGID_1_)"/></g><g><path d="m16 4c-.5527344 0-1-.4477539-1-1v-1c0-.5522461.4472656-1 1-1s1 .4477539 1 1v1c0 .5522461-.4472656 1-1 1z" fill="url(#SVGID_2_)"/></g><g><path d="m2 17s1-3 4.5-3 4.5 3 4.5 3 1-3 5-3 5 3 5 3 1-3 4.5-3 4.5 3 4.5 3c0-7.7319336-6.2675781-14-14-14s-14 6.2680664-14 14z" fill="url(#SVGID_3_)"/></g><path d="m21 17s-1-3-5-3-5 3-5 3c0-3.8701172.0097656-14 5-14s5 10.1298828 5 14z" fill="url(#SVGID_4_)"/></g></g></svg>