<svg height="512" viewBox="0 0 32 32" width="512" xmlns="http://www.w3.org/2000/svg" xmlns:xlink="http://www.w3.org/1999/xlink"><linearGradient id="lg1"><stop offset="0" stop-color="#42a5f5"/><stop offset="1" stop-color="#1e88e5"/></linearGradient><linearGradient id="SVGID_1_" gradientUnits="userSpaceOnUse" x1="6" x2="26" xlink:href="#lg1" y1="16" y2="16"/><linearGradient id="SVGID_2_" gradientUnits="userSpaceOnUse" x1="8" x2="24" y1="16" y2="16"><stop offset="0" stop-color="#bbdefb"/><stop offset="1" stop-color="#64b5f6"/></linearGradient><linearGradient id="SVGID_3_" gradientUnits="userSpaceOnUse" x1="10" x2="22.5" xlink:href="#lg1" y1="9.5" y2="9.5"/><linearGradient id="SVGID_4_" gradientUnits="userSpaceOnUse" x1="11" x2="16" xlink:href="#lg1" y1="17" y2="17"/><linearGradient id="SVGID_5_" gradientUnits="userSpaceOnUse" x1="14" x2="18" xlink:href="#lg1" y1="27" y2="27"/><linearGradient id="SVGID_6_" gradientUnits="userSpaceOnUse" x1="18" x2="21" xlink:href="#lg1" y1="17" y2="17"/><linearGradient id="SVGID_7_" gradientUnits="userSpaceOnUse" x1="11" x2="16" xlink:href="#lg1" y1="21" y2="21"/><linearGradient id="SVGID_8_" gradientUnits="userSpaceOnUse" x1="18" x2="21" xlink:href="#lg1" y1="21" y2="21"/><g id="weather_forecast"><g><g><path d="m22 31h-12c-2.2060547 0-4-1.7944336-4-4v-22c0-2.2055664 1.7939453-4 4-4h12c2.2060547 0 4 1.7944336 4 4v22c0 2.2055664-1.7939453 4-4 4z" fill="url(#SVGID_1_)"/><path d="m10 3c-1.1025391 0-2 .8969727-2 2v22c0 1.1030273.8974609 2 2 2h12c1.1025391 0 2-.8969727 2-2v-22c0-1.1030273-.8974609-2-2-2z" fill="url(#SVGID_2_)"/><path d="m19 14-6-.0004883c-1.6542969 0-3-1.3457031-3-3 0-1.3095703.84375-2.4257813 2.015625-2.8339844.1689453-1.7739257 1.6669922-3.1655273 3.484375-3.1655273 1.3876953 0 2.6005859.8149414 3.1591797 2.0170898 2.03125-.1987304 3.8408203 1.4394532 3.8408203 3.4829102 0 1.9296875-1.5703125 3.5-3.5 3.5z" fill="url(#SVGID_3_)"/><g><path d="m15 18h-3c-.5527344 0-1-.4477539-1-1s.4472656-1 1-1h3c.5527344 0 1 .4477539 1 1s-.4472656 1-1 1z" fill="url(#SVGID_4_)"/></g><g><path d="m17 27.9995117h-2c-.5527344 0-1-.4477539-1-1s.4472656-1 1-1h2c.5527344 0 1 .4477539 1 1s-.4472656 1-1 1z" fill="url(#SVGID_5_)"/></g><g><path d="m20 18h-1c-.5527344 0-1-.4477539-1-1s.4472656-1 1-1h1c.5527344 0 1 .4477539 1 1s-.4472656 1-1 1z" fill="url(#SVGID_6_)"/></g><g><path d="m15 22h-3c-.5527344 0-1-.4477539-1-1s.4472656-1 1-1h3c.5527344 0 1 .4477539 1 1s-.4472656 1-1 1z" fill="url(#SVGID_7_)"/></g><g><path d="m20 22h-1c-.5527344 0-1-.4477539-1-1s.4472656-1 1-1h1c.5527344 0 1 .4477539 1 1s-.4472656 1-1 1z" fill="url(#SVGID_8_)"/></g></g></g></g></svg>