<svg height="512" viewBox="0 0 32 32" width="512" xmlns="http://www.w3.org/2000/svg" xmlns:xlink="http://www.w3.org/1999/xlink"><linearGradient id="lg1"><stop offset="0" stop-color="#42a5f5"/><stop offset="1" stop-color="#1e88e5"/></linearGradient><linearGradient id="SVGID_1_" gradientUnits="userSpaceOnUse" x1="4" x2="11" xlink:href="#lg1" y1="7.5" y2="7.5"/><linearGradient id="SVGID_2_" gradientUnits="userSpaceOnUse" x1="4" x2="11" xlink:href="#lg1" y1="13.5" y2="13.5"/><linearGradient id="SVGID_3_" gradientUnits="userSpaceOnUse" x1="1" x2="6" xlink:href="#lg1" y1="16" y2="16"/><linearGradient id="SVGID_4_" gradientUnits="userSpaceOnUse" x1="9" x2="31" y1="10.5" y2="10.5"><stop offset="0" stop-color="#bbdefb"/><stop offset="1" stop-color="#64b5f6"/></linearGradient><linearGradient id="SVGID_5_" gradientUnits="userSpaceOnUse" x1="24" x2="26" xlink:href="#lg1" y1="10.135" y2="10.135"/><linearGradient id="SVGID_6_" gradientUnits="userSpaceOnUse" x1="19" x2="21" xlink:href="#lg1" y1="10.27" y2="10.27"/><linearGradient id="SVGID_7_" gradientUnits="userSpaceOnUse" x1="14" x2="16" xlink:href="#lg1" y1="10.4" y2="10.4"/><g id="windsock"><g><g><path d="m5.0009766 10c-.3398438 0-.6708984-.1728516-.8583984-.4853516-.2841798-.4736328-.1308594-1.0878906.3427734-1.3720703l5-3c.4746094-.2841797 1.0878906-.1303711 1.3720703.3427734.2841797.4736328.1308594 1.0878906-.3427734 1.3720703l-5 3c-.1611329.0966798-.3388672.1425782-.5136719.1425782z" fill="url(#SVGID_1_)"/></g><g><path d="m9.9990234 16c-.1748047 0-.3525391-.0458984-.5136719-.1425781l-5-3c-.4736328-.2841797-.6269531-.8984375-.3427734-1.3720703.2841797-.4731445.8984375-.6279297 1.3720703-.3427734l5 3c.4736328.2841797.6269531.8984375.3427734 1.3720703-.1874999.3124999-.5185546.4853515-.8583984.4853515z" fill="url(#SVGID_2_)"/></g><path d="m3.5 1c-1.3789062 0-2.5 1.121582-2.5 2.5v26.5c0 .5522461.4472656 1 1 1h3c.5527344 0 1-.4477539 1-1v-26.5c0-1.378418-1.1210937-2.5-2.5-2.5z" fill="url(#SVGID_3_)"/><path d="m29.6591797 6.2475586c-.1552734-.1357422-.3496094-.2202148-.5546875-.2421875l-19-2c-.2802734-.0288086-.5625.0615234-.7734375.2514648-.2109375.1894532-.3310547.459961-.3310547.7431641v11c0 .2924805.1279297.5703125.3505859.7602539.1826172.1557617.413086.2397461.6494141.2397461.0517578 0 .1035156-.0039063.15625-.012207l19-3c.1865234-.0292969.3603516-.1108398.5029297-.2353516.1367187-.1201172 1.3408203-1.246582 1.3408203-3.7524414s-1.2041016-3.6323242-1.3408203-3.7524414z" fill="url(#SVGID_4_)"/><g><path d="m26 5.6801758v8.8100586l-2 .3095703v-9.3295899z" fill="url(#SVGID_5_)"/></g><g><path d="m21 5.1601563v10.1196289l-2 .3100586v-10.6396485z" fill="url(#SVGID_6_)"/></g><g><path d="m16 4.6298828v11.4399414l-2 .3100586v-11.9599609z" fill="url(#SVGID_7_)"/></g></g></g></svg>