<svg id="glipy_copy" height="512" viewBox="0 0 64 64" width="512" xmlns="http://www.w3.org/2000/svg" xmlns:xlink="http://www.w3.org/1999/xlink" data-name="glipy copy"><linearGradient id="linear-gradient" gradientUnits="userSpaceOnUse" x1="9.902" x2="54.098" y1="32" y2="32"><stop offset="0" stop-color="#00c0ff"/><stop offset="1" stop-color="#5558ff"/></linearGradient><path d="m31.30988 53.94733a1.017 1.017 0 0 0 1.38036-.00006c6.498-6.23989 19.691-20.70211 19.59668-29.66022a20.287 20.287 0 1 0 -40.57392-.00005c-.1028 8.94272 13.10471 23.43711 19.59688 29.66033zm-7.95288-29.66033c.45932-11.45666 16.82839-11.45343 17.286.00006a8.643 8.643 0 0 1 -17.286-.00006zm30.74067 28.93c-.07644 9.0439-44.1192 9.044-44.19534-.00006 0-3.24112 5.712-5.19174 12.17425-6.12212.45487.54969 1.10592 1.25416 1.59052 1.80067-8.01278.9603-11.76408 3.041-11.76408 4.32151 0 1.96064 7.83273 4.80165 20.097 4.80165s20.097-2.841 20.097-4.80165c0-1.28048-3.7513-3.36121-11.76408-4.32151l.70025-.78029c.3001-.34009.60019-.68023.89027-1.02038 6.46221.93042 12.17421 2.88104 12.17421 6.12218z" fill="url(#linear-gradient)"/></svg>